<?xml version="1.0" encoding="utf-8"?>
<!-- Generator: Adobe Illustrator 25.1.0, SVG Export Plug-In . SVG Version: 6.00 Build 0)  -->
<svg version="1.1" xmlns="http://www.w3.org/2000/svg" xmlns:xlink="http://www.w3.org/1999/xlink" x="0px" y="0px"
	 viewBox="0 0 960 360" style="enable-background:new 0 0 960 360;" xml:space="preserve">
<style type="text/css">
	.st0{fill:url(#SVGID_1_);}
	.st1{fill:#705987;}
	.st2{fill:#E6E6E6;}
	.st3{fill:#C4A1E2;}
	.st4{fill:#413449;}
</style>
<g id="Camada_1">
</g>
<g id="Camada_2">
	<g>
		<linearGradient id="SVGID_1_" gradientUnits="userSpaceOnUse" x1="481.007" y1="379.4998" x2="478.7524" y2="-13.5445">
			<stop  offset="0" style="stop-color:#FB7E54;stop-opacity:0.8"/>
			<stop  offset="7.364154e-03" style="stop-color:#F87C55;stop-opacity:0.8"/>
			<stop  offset="0.1059" style="stop-color:#D16962;stop-opacity:0.8"/>
			<stop  offset="0.2116" style="stop-color:#B0596E;stop-opacity:0.8"/>
			<stop  offset="0.3244" style="stop-color:#954C77;stop-opacity:0.8"/>
			<stop  offset="0.4466" style="stop-color:#80427E;stop-opacity:0.8"/>
			<stop  offset="0.5832" style="stop-color:#713B83;stop-opacity:0.8"/>
			<stop  offset="0.7456" style="stop-color:#693686;stop-opacity:0.8"/>
			<stop  offset="1" style="stop-color:#663587;stop-opacity:0.8"/>
		</linearGradient>
		<rect x="-0.14" class="st0" width="960" height="360"/>
	</g>
</g>
<g id="Camada_4">
	<path class="st1" d="M960,323.5V360H651.08v-36.45c0,0,44.92-0.55,88.61-0.01c15.84,0.19,25.7-2.95,31.83-7.04
		c10.79-7.17,10.05-17.26,10.05-17.26h37.78c0.97,7.6,5.31,12.83,10.98,16.42c13.92,8.84,35.89,7.84,35.89,7.84
		S906.21,323.5,960,323.5z"/>
	<g>
		<path class="st2" d="M537.89,62.43c0,0.57-0.5,1.03-1.13,1.03c-0.62,0-1.13-0.46-1.13-1.03c0-0.56,0.5-1.02,1.13-1.02
			C537.38,61.4,537.89,61.86,537.89,62.43z"/>
		<path class="st2" d="M326.71,9.57c0,0.57-0.5,1.02-1.13,1.02c-0.62,0-1.13-0.46-1.13-1.02c0-0.57,0.5-1.03,1.13-1.03
			C326.21,8.55,326.71,9.01,326.71,9.57z"/>
		<path class="st2" d="M877.71,9.94c0,1.42-1.26,2.57-2.82,2.57c-1.56,0-2.82-1.15-2.82-2.57c0-1.42,1.26-2.57,2.82-2.57
			C876.45,7.37,877.71,8.52,877.71,9.94z"/>
		<ellipse class="st2" cx="165.08" cy="61.4" rx="2.82" ry="2.57"/>
		<path class="st2" d="M21.69,45.8c0,1.42-1.26,2.57-2.82,2.57c-1.56,0-2.82-1.15-2.82-2.57c0-1.42,1.26-2.57,2.82-2.57
			C20.43,43.23,21.69,44.38,21.69,45.8z"/>
		<path class="st2" d="M374.95,33.04c0,1.42-1.26,2.57-2.82,2.57s-2.82-1.15-2.82-2.57c0-1.42,1.26-2.57,2.82-2.57
			S374.95,31.62,374.95,33.04z"/>
		<path class="st2" d="M906,147.04c0,0.57-0.5,1.03-1.13,1.03c-0.62,0-1.13-0.46-1.13-1.03c0-0.56,0.5-1.02,1.13-1.02
			C905.5,146.02,906,146.48,906,147.04z"/>
		<path class="st2" d="M754.24,78.13c0,0.57-0.5,1.03-1.13,1.03s-1.13-0.46-1.13-1.03c0-0.57,0.5-1.02,1.13-1.02
			S754.24,77.57,754.24,78.13z"/>
		<path class="st2" d="M548.83,21.82c0,0.56-0.5,1.02-1.13,1.02c-0.62,0-1.13-0.46-1.13-1.02c0-0.57,0.5-1.03,1.13-1.03
			C548.33,20.79,548.83,21.25,548.83,21.82z"/>
		<path class="st2" d="M24.7,156.64c0,1.42-1.26,2.57-2.82,2.57c-1.56,0-2.82-1.15-2.82-2.57c0-1.42,1.26-2.57,2.82-2.57
			C23.44,154.07,24.7,155.22,24.7,156.64z"/>
		<path class="st2" d="M375.03,74.8c0,1.42-1.26,2.57-2.82,2.57s-2.82-1.15-2.82-2.57s1.26-2.57,2.82-2.57S375.03,73.38,375.03,74.8
			z"/>
		<path class="st2" d="M168.97,123.79c0,0.56-0.5,1.02-1.13,1.02c-0.62,0-1.13-0.46-1.13-1.02c0-0.57,0.5-1.03,1.13-1.03
			C168.47,122.76,168.97,123.22,168.97,123.79z"/>
		<path class="st2" d="M773.65,18.62c0,1.42-1.26,2.57-2.82,2.57c-1.56,0-2.82-1.15-2.82-2.57c0-1.42,1.26-2.57,2.82-2.57
			C772.39,16.05,773.65,17.2,773.65,18.62z"/>
		<path class="st2" d="M710.82,81.72c0,1.42-1.26,2.57-2.82,2.57c-1.56,0-2.82-1.15-2.82-2.57c0-1.42,1.27-2.57,2.82-2.57
			C709.56,79.15,710.82,80.3,710.82,81.72z"/>
		<path class="st2" d="M568.33,37.22c0,0.57-0.5,1.03-1.12,1.03c-0.62,0-1.13-0.46-1.13-1.03c0-0.57,0.5-1.02,1.13-1.02
			C567.83,36.2,568.33,36.66,568.33,37.22z"/>
		<path class="st2" d="M660.14,133.19c0,0.57-0.5,1.02-1.12,1.02c-0.62,0-1.13-0.46-1.13-1.02c0-0.57,0.5-1.03,1.13-1.03
			C659.64,132.17,660.14,132.62,660.14,133.19z"/>
		<path class="st2" d="M945.5,54.29c0,0.57-0.5,1.02-1.13,1.02c-0.62,0-1.13-0.46-1.13-1.02c0-0.57,0.5-1.03,1.13-1.03
			C944.99,53.26,945.5,53.72,945.5,54.29z"/>
		<path class="st2" d="M53.6,147.61c0,0.57-0.5,1.03-1.12,1.03c-0.62,0-1.13-0.46-1.13-1.03c0-0.57,0.5-1.02,1.13-1.02
			C53.1,146.58,53.6,147.04,53.6,147.61z"/>
		<path class="st2" d="M633.1,82.35c0,1.42-1.26,2.57-2.82,2.57c-1.56,0-2.82-1.15-2.82-2.57c0-1.42,1.26-2.57,2.82-2.57
			C631.84,79.78,633.1,80.93,633.1,82.35z"/>
		<path class="st2" d="M870.14,54.29c0,1.42-1.26,2.57-2.82,2.57c-1.56,0-2.82-1.15-2.82-2.57c0-1.42,1.26-2.57,2.82-2.57
			C868.88,51.71,870.14,52.87,870.14,54.29z"/>
		<ellipse class="st2" cx="924.36" cy="97.43" rx="2.82" ry="2.57"/>
		<path class="st2" d="M886.28,136.56c0,1.42-1.26,2.57-2.82,2.57c-1.56,0-2.82-1.15-2.82-2.57s1.26-2.57,2.82-2.57
			C885.02,133.99,886.28,135.14,886.28,136.56z"/>
		<path class="st2" d="M713.11,69.8c0,0.57-0.5,1.03-1.12,1.03c-0.62,0-1.13-0.46-1.13-1.03c0-0.57,0.5-1.02,1.13-1.02
			C712.6,68.78,713.11,69.24,713.11,69.8z"/>
		<path class="st2" d="M613.41,117.64c0,0.57-0.5,1.03-1.12,1.03s-1.13-0.46-1.13-1.03c0-0.57,0.5-1.02,1.13-1.02
			S613.41,117.07,613.41,117.64z"/>
		<path class="st2" d="M836.94,13.85c0,1.42-1.26,2.57-2.82,2.57c-1.56,0-2.82-1.15-2.82-2.57s1.26-2.57,2.82-2.57
			C835.68,11.28,836.94,12.43,836.94,13.85z"/>
		<path class="st2" d="M444.04,33.17c0,1.42-1.26,2.57-2.82,2.57s-2.82-1.15-2.82-2.57c0-1.42,1.26-2.57,2.82-2.57
			S444.04,31.75,444.04,33.17z"/>
		<path class="st2" d="M802.31,15c0,1.42-1.26,2.57-2.82,2.57s-2.82-1.15-2.82-2.57c0-1.42,1.26-2.57,2.82-2.57
			S802.31,13.58,802.31,15z"/>
		<ellipse class="st2" cx="250.95" cy="64.13" rx="2.82" ry="2.57"/>
		<path class="st2" d="M808.37,116.62c0,1.42-1.26,2.57-2.82,2.57c-1.56,0-2.82-1.15-2.82-2.57c0-1.42,1.26-2.57,2.82-2.57
			C807.11,114.05,808.37,115.2,808.37,116.62z"/>
		<path class="st2" d="M624.76,65.11c0,0.57-0.5,1.02-1.12,1.02c-0.62,0-1.13-0.46-1.13-1.02c0-0.57,0.5-1.03,1.13-1.03
			C624.25,64.08,624.76,64.54,624.76,65.11z"/>
		<path class="st2" d="M929.46,85.51c0,0.57-0.5,1.03-1.12,1.03c-0.62,0-1.13-0.46-1.13-1.03c0-0.56,0.5-1.02,1.13-1.02
			C928.96,84.48,929.46,84.94,929.46,85.51z"/>
		<path class="st2" d="M829.77,133.34c0,0.57-0.5,1.03-1.12,1.03c-0.62,0-1.13-0.46-1.13-1.03c0-0.56,0.5-1.02,1.13-1.02
			C829.27,132.32,829.77,132.78,829.77,133.34z"/>
		<path class="st2" d="M496.54,21.48c0,1.42-1.26,2.57-2.82,2.57c-1.56,0-2.82-1.15-2.82-2.57c0-1.42,1.26-2.57,2.82-2.57
			C495.28,18.91,496.54,20.06,496.54,21.48z"/>
		<path class="st2" d="M739.63,87.8c0,1.42-0.95,2.85-2.51,2.85s-2.82-1.15-2.82-2.57c0-1.42,1.26-2.57,2.82-2.57
			S739.63,86.38,739.63,87.8z"/>
		<path class="st2" d="M668.96,14.63c0,1.42-1.26,2.57-2.82,2.57c-1.56,0-2.82-1.15-2.82-2.57c0-1.42,1.26-2.57,2.82-2.57
			C667.7,12.06,668.96,13.21,668.96,14.63z"/>
	</g>
	<g>
		<path class="st3" d="M-675.21-1079.15c0,1.23-1,2.23-2.24,2.23s-2.24-1-2.24-2.23s1-2.23,2.24-2.23
			S-675.21-1080.39-675.21-1079.15z"/>
		<path class="st3" d="M-642.99-1006.29c0,1.23-1,2.23-2.24,2.23c-1.24,0-2.24-1-2.24-2.23c0-1.23,1-2.23,2.24-2.23
			C-643.99-1008.52-642.99-1007.52-642.99-1006.29z"/>
		<path class="st3" d="M-806.45-1106.12c0,1.23-1,2.23-2.24,2.23c-1.24,0-2.24-1-2.24-2.23c0-1.23,1-2.23,2.24-2.23
			C-807.45-1108.35-806.45-1107.35-806.45-1106.12z"/>
		<path class="st3" d="M-579.37-1029.15c0,0.49-0.4,0.89-0.89,0.89c-0.49,0-0.89-0.4-0.89-0.89c0-0.49,0.4-0.89,0.89-0.89
			C-579.78-1030.03-579.37-1029.64-579.37-1029.15z"/>
		<path class="st3" d="M-286.15-1047.7c0,0.49-0.4,0.89-0.89,0.89c-0.49,0-0.89-0.4-0.89-0.89c0-0.49,0.4-0.89,0.89-0.89
			C-286.55-1048.59-286.15-1048.19-286.15-1047.7z"/>
		<path class="st3" d="M-658.52-987.71c0,0.49-0.4,0.89-0.89,0.89c-0.49,0-0.89-0.4-0.89-0.89c0-0.49,0.4-0.89,0.89-0.89
			C-658.92-988.6-658.52-988.2-658.52-987.71z"/>
		<path class="st3" d="M-1038.9-992.77c0,0.49-0.4,0.89-0.89,0.89c-0.49,0-0.89-0.4-0.89-0.89c0-0.49,0.4-0.89,0.89-0.89
			C-1039.3-993.65-1038.9-993.26-1038.9-992.77z"/>
		<path class="st3" d="M-506.56-975.4c0,0.49-0.4,0.89-0.89,0.89c-0.49,0-0.89-0.4-0.89-0.89c0-0.49,0.4-0.89,0.89-0.89
			C-506.96-976.29-506.56-975.89-506.56-975.4z"/>
		<path class="st3" d="M-362.1-1038.99c0,0.49-0.4,0.89-0.89,0.89c-0.49,0-0.89-0.4-0.89-0.89c0-0.49,0.4-0.89,0.89-0.89
			C-362.5-1039.88-362.1-1039.48-362.1-1038.99z"/>
		<path class="st3" d="M-648.25-866.23c0,0.49-0.4,0.89-0.89,0.89c-0.49,0-0.89-0.4-0.89-0.89c0-0.49,0.4-0.89,0.89-0.89
			C-648.66-867.12-648.25-866.72-648.25-866.23z"/>
		<path class="st3" d="M-815.9-912.01c0,0.49-0.4,0.89-0.89,0.89c-0.49,0-0.89-0.4-0.89-0.89c0-0.49,0.4-0.89,0.89-0.89
			C-816.31-912.9-815.9-912.5-815.9-912.01z"/>
		<path class="st3" d="M-481.06-1077.61c0,1.23-1,2.23-2.24,2.23c-1.24,0-2.24-1-2.24-2.23s1-2.23,2.24-2.23
			C-482.06-1079.84-481.06-1078.84-481.06-1077.61z"/>
		<path class="st3" d="M-279-961.58c0,1.23-1,2.23-2.24,2.23s-2.24-1-2.24-2.23c0-1.23,1-2.23,2.24-2.23S-279-962.81-279-961.58z"/>
		<path class="st3" d="M-378.47-911.69c0,1.23-1,2.23-2.24,2.23c-1.24,0-2.24-1-2.24-2.23c0-1.23,1-2.23,2.24-2.23
			C-379.47-913.92-378.47-912.92-378.47-911.69z"/>
		<path class="st3" d="M-927.65-1077.61c0,1.23-1,2.23-2.24,2.23c-1.24,0-2.24-1-2.24-2.23s1-2.23,2.24-2.23
			C-928.65-1079.84-927.65-1078.84-927.65-1077.61z"/>
		<ellipse class="st3" cx="-944.22" cy="-867.12" rx="2.24" ry="2.23"/>
		<path class="st3" d="M-1117.84-1043.36c0,1.23-1,2.23-2.24,2.23c-1.24,0-2.24-1-2.24-2.23c0-1.23,1-2.23,2.24-2.23
			C-1118.84-1045.59-1117.84-1044.59-1117.84-1043.36z"/>
		<ellipse class="st3" cx="-746.72" cy="-1026.92" rx="2.24" ry="2.23"/>
		<path class="st3" d="M-508.55-1076.62c0,1.23-1,2.23-2.24,2.23s-2.24-1-2.24-2.23c0-1.23,1-2.23,2.24-2.23
			S-508.55-1077.85-508.55-1076.62z"/>
		<path class="st3" d="M-677.63-968.76c0,1.23-1,2.23-2.24,2.23c-1.24,0-2.24-1-2.24-2.23c0-1.23,1-2.23,2.24-2.23
			C-678.63-970.99-677.63-969.99-677.63-968.76z"/>
		<path class="st3" d="M-1058.06-880.64c0,1.23-1,2.23-2.24,2.23c-1.24,0-2.24-1-2.24-2.23c0-1.23,1-2.23,2.24-2.23
			C-1059.06-882.86-1058.06-881.87-1058.06-880.64z"/>
		<path class="st3" d="M-566.38-975.4c0,1.23-1,2.23-2.24,2.23c-1.24,0-2.24-1-2.24-2.23c0-1.23,1-2.23,2.24-2.23
			C-567.38-977.63-566.38-976.63-566.38-975.4z"/>
		<path class="st3" d="M-515.64-984.6c0,1.23-1,2.23-2.24,2.23s-2.24-1-2.24-2.23c0-1.23,1-2.23,2.24-2.23
			S-515.64-985.83-515.64-984.6z"/>
		<path class="st3" d="M-777.61-891.69c0,1.23-1,2.23-2.24,2.23s-2.24-1-2.24-2.23c0-1.23,1-2.23,2.24-2.23
			S-777.61-892.92-777.61-891.69z"/>
		<path class="st3" d="M-634.68-1092.52c0,1.23-1,2.23-2.24,2.23c-1.24,0-2.24-1-2.24-2.23c0-1.23,1-2.23,2.24-2.23
			C-635.68-1094.74-634.68-1093.75-634.68-1092.52z"/>
		<path class="st3" d="M-649.51-1033.21c0,0.49-0.4,0.89-0.89,0.89c-0.49,0-0.89-0.4-0.89-0.89c0-0.49,0.4-0.89,0.89-0.89
			C-649.91-1034.1-649.51-1033.7-649.51-1033.21z"/>
		<path class="st3" d="M-407.61-1015.54c0,0.49-0.4,0.89-0.89,0.89c-0.49,0-0.89-0.4-0.89-0.89c0-0.49,0.4-0.89,0.89-0.89
			C-408.01-1016.43-407.61-1016.03-407.61-1015.54z"/>
		<path class="st3" d="M-1041.38-953.91c0,0.49-0.4,0.89-0.89,0.89c-0.49,0-0.89-0.4-0.89-0.89c0-0.49,0.4-0.89,0.89-0.89
			C-1041.78-954.79-1041.38-954.4-1041.38-953.91z"/>
		<path class="st3" d="M-486.76-974.11c0,0.49-0.4,0.89-0.89,0.89c-0.49,0-0.89-0.4-0.89-0.89c0-0.49,0.4-0.89,0.89-0.89
			C-487.15-975-486.76-974.6-486.76-974.11z"/>
		<path class="st3" d="M-867.14-979.16c0,0.49-0.4,0.89-0.89,0.89c-0.49,0-0.89-0.4-0.89-0.89c0-0.49,0.4-0.89,0.89-0.89
			C-867.54-980.05-867.14-979.65-867.14-979.16z"/>
		<path class="st3" d="M-1117.34-945.19c0,0.49-0.4,0.89-0.89,0.89c-0.49,0-0.89-0.4-0.89-0.89c0-0.49,0.4-0.89,0.89-0.89
			C-1117.74-946.08-1117.34-945.68-1117.34-945.19z"/>
		<path class="st3" d="M-476.49-852.63c0,0.49-0.4,0.89-0.89,0.89s-0.89-0.4-0.89-0.89c0-0.49,0.4-0.89,0.89-0.89
			S-476.49-853.12-476.49-852.63z"/>
		<path class="st3" d="M-644.14-898.41c0,0.49-0.4,0.89-0.89,0.89c-0.49,0-0.89-0.4-0.89-0.89c0-0.49,0.4-0.89,0.89-0.89
			C-644.54-899.3-644.14-898.9-644.14-898.41z"/>
		<path class="st3" d="M-309.3-1064.01c0,1.23-1,2.23-2.24,2.23c-1.24,0-2.24-1-2.24-2.23c0-1.23,1-2.23,2.24-2.23
			C-310.3-1066.23-309.3-1065.23-309.3-1064.01z"/>
		<path class="st3" d="M-1034.24-867.78c0,1.23-1,2.23-2.24,2.23c-1.24,0-2.24-1-2.24-2.23c0-1.23,1-2.23,2.24-2.23
			C-1035.24-870.01-1034.24-869.01-1034.24-867.78z"/>
		<path class="st3" d="M-1058.12-970.89c0,1.23-1,2.23-2.24,2.23c-1.24,0-2.24-1-2.24-2.23s1-2.23,2.24-2.23
			C-1059.12-973.12-1058.12-972.12-1058.12-970.89z"/>
		<path class="st3" d="M-755.88-1064.01c0,1.23-1,2.23-2.24,2.23c-1.24,0-2.24-1-2.24-2.23c0-1.23,1-2.23,2.24-2.23
			C-756.89-1066.23-755.88-1065.23-755.88-1064.01z"/>
		<path class="st3" d="M-770.22-853.52c0,1.23-1,2.23-2.24,2.23c-1.24,0-2.24-1-2.24-2.23c0-1.23,1-2.23,2.24-2.23
			C-771.22-855.74-770.22-854.75-770.22-853.52z"/>
		<ellipse class="st3" cx="-574.95" cy="-1013.32" rx="2.24" ry="2.23"/>
		<path class="st3" d="M-336.79-1063.01c0,1.23-1,2.23-2.24,2.23c-1.24,0-2.24-1-2.24-2.23c0-1.23,1-2.23,2.24-2.23
			C-337.79-1065.24-336.79-1064.24-336.79-1063.01z"/>
		<path class="st3" d="M-510.44-959.15c0,1.23-1,2.23-2.24,2.23c-1.24,0-2.24-1-2.24-2.23c0-1.23,1-2.23,2.24-2.23
			C-511.44-961.38-510.44-960.39-510.44-959.15z"/>
		<path class="st3" d="M-343.88-970.99c0,1.23-1,2.23-2.24,2.23s-2.24-1-2.24-2.23c0-1.23,1-2.23,2.24-2.23
			S-343.88-972.22-343.88-970.99z"/>
		<ellipse class="st3" cx="-603.51" cy="-937" rx="2.24" ry="2.23"/>
		<path class="st3" d="M-1046.54-1134.11c0,0.49-0.4,0.89-0.89,0.89s-0.89-0.4-0.89-0.89c0-0.49,0.4-0.89,0.89-0.89
			S-1046.54-1134.6-1046.54-1134.11z"/>
		<path class="st3" d="M-691.05-959.96c0,0.49-0.4,0.89-0.89,0.89c-0.49,0-0.89-0.4-0.89-0.89c0-0.49,0.4-0.89,0.89-0.89
			C-691.45-960.85-691.05-960.45-691.05-959.96z"/>
		<path class="st3" d="M-883.78-1075.01c0,0.49-0.4,0.89-0.89,0.89c-0.49,0-0.89-0.4-0.89-0.89c0-0.49,0.4-0.89,0.89-0.89
			C-884.18-1075.9-883.78-1075.5-883.78-1075.01z"/>
		<path class="st3" d="M-873.52-953.53c0,0.49-0.4,0.89-0.89,0.89c-0.49,0-0.89-0.4-0.89-0.89c0-0.49,0.4-0.89,0.89-0.89
			C-873.92-954.42-873.52-954.02-873.52-953.53z"/>
		<path class="st3" d="M-1041.17-999.31c0,0.49-0.4,0.89-0.89,0.89c-0.49,0-0.89-0.4-0.89-0.89c0-0.49,0.4-0.89,0.89-0.89
			C-1041.57-1000.2-1041.17-999.8-1041.17-999.31z"/>
		<path class="st3" d="M-592.74-1010.42c0,1.23-1,2.23-2.24,2.23s-2.24-1-2.24-2.23c0-1.23,1-2.23,2.24-2.23
			S-592.74-1011.65-592.74-1010.42z"/>
		<path class="st3" d="M-969.74-1114.22c0,1.23-1,2.23-2.24,2.23c-1.24,0-2.24-1-2.24-2.23c0-1.23,1-2.23,2.24-2.23
			C-970.74-1116.44-969.74-1115.45-969.74-1114.22z"/>
		<path class="st3" d="M-620.23-1009.43c0,1.23-1,2.23-2.24,2.23c-1.24,0-2.24-1-2.24-2.23c0-1.23,1-2.23,2.24-2.23
			C-621.23-1011.66-620.23-1010.66-620.23-1009.43z"/>
		<path class="st3" d="M-907.47-1060.06c0,1.23-1,2.23-2.24,2.23c-1.24,0-2.24-1-2.24-2.23c0-1.23,1-2.23,2.24-2.23
			C-908.47-1062.28-907.47-1061.29-907.47-1060.06z"/>
		<path class="st3" d="M-740.9-1071.89c0,1.23-1,2.23-2.24,2.23s-2.24-1-2.24-2.23s1-2.23,2.24-2.23S-740.9-1073.12-740.9-1071.89z"
			/>
		<path class="st3" d="M-996.46-982.98c0,1.23-1,2.23-2.24,2.23c-1.24,0-2.24-1-2.24-2.23c0-1.23,1-2.23,2.24-2.23
			C-997.46-985.21-996.46-984.21-996.46-982.98z"/>
		<path class="st3" d="M-874.77-1120.51c0,0.49-0.4,0.89-0.89,0.89s-0.89-0.4-0.89-0.89c0-0.49,0.4-0.89,0.89-0.89
			S-874.77-1121-874.77-1120.51z"/>
		<path class="st3" d="M-632.87-1102.84c0,0.49-0.4,0.89-0.89,0.89c-0.49,0-0.89-0.4-0.89-0.89c0-0.49,0.4-0.89,0.89-0.89
			C-633.27-1103.73-632.87-1103.33-632.87-1102.84z"/>
		<path class="st3" d="M-712.02-1061.41c0,0.49-0.4,0.89-0.89,0.89c-0.49,0-0.89-0.4-0.89-0.89c0-0.49,0.4-0.89,0.89-0.89
			C-712.42-1062.29-712.02-1061.9-712.02-1061.41z"/>
		<path class="st3" d="M-701.75-939.93c0,0.49-0.4,0.89-0.89,0.89c-0.49,0-0.89-0.4-0.89-0.89c0-0.49,0.4-0.89,0.89-0.89
			C-702.15-940.81-701.75-940.42-701.75-939.93z"/>
		<path class="st3" d="M-869.4-985.7c0,0.49-0.4,0.89-0.89,0.89c-0.49,0-0.89-0.4-0.89-0.89c0-0.49,0.4-0.89,0.89-0.89
			C-869.8-986.59-869.4-986.2-869.4-985.7z"/>
		<path class="st3" d="M-995.48-940.81c0,1.23-1,2.23-2.24,2.23s-2.24-1-2.24-2.23c0-1.23,1-2.23,2.24-2.23
			S-995.48-942.04-995.48-940.81z"/>
		<path class="st3" d="M-797.97-1100.61c0,1.23-1,2.23-2.24,2.23c-1.24,0-2.24-1-2.24-2.23c0-1.23,1-2.23,2.24-2.23
			C-798.97-1102.84-797.97-1101.84-797.97-1100.61z"/>
		<path class="st3" d="M-735.7-1046.45c0,1.23-1,2.23-2.24,2.23c-1.24,0-2.24-1-2.24-2.23s1-2.23,2.24-2.23
			C-736.7-1048.68-735.7-1047.68-735.7-1046.45z"/>
		<path class="st3" d="M-824.7-969.38c0,1.23-1,2.23-2.24,2.23c-1.24,0-2.24-1-2.24-2.23c0-1.23,1-2.23,2.24-2.23
			C-825.7-971.6-824.7-970.61-824.7-969.38z"/>
		<path class="st3" d="M-314.32-1129.09c0,1.23-1,2.23-2.24,2.23c-1.24,0-2.24-1-2.24-2.23c0-1.23,1-2.23,2.24-2.23
			C-315.32-1131.32-314.32-1130.32-314.32-1129.09z"/>
		<path class="st3" d="M-703.21-1010.74c0,1.23-1,2.23-2.24,2.23s-2.24-1-2.24-2.23c0-1.23,1-2.23,2.24-2.23
			S-703.21-1011.97-703.21-1010.74z"/>
		<path class="st3" d="M-461.08-904.17c0,1.23-1,2.23-2.24,2.23c-1.24,0-2.24-1-2.24-2.23c0-1.23,1-2.23,2.24-2.23
			C-462.08-906.4-461.08-905.4-461.08-904.17z"/>
		<path class="st3" d="M-510.96-849.52c0,1.23-1,2.23-2.24,2.23c-1.24,0-2.24-1-2.24-2.23c0-1.23,1-2.23,2.24-2.23
			C-511.96-851.75-510.96-850.75-510.96-849.52z"/>
		<path class="st3" d="M-625.91-881.07c0,0.49-0.4,0.89-0.89,0.89c-0.49,0-0.89-0.4-0.89-0.89s0.4-0.89,0.89-0.89
			C-626.32-881.96-625.91-881.56-625.91-881.07z"/>
		<path class="st3" d="M-525.79-790.22c0,0.49-0.4,0.89-0.89,0.89c-0.49,0-0.89-0.4-0.89-0.89c0-0.49,0.4-0.89,0.89-0.89
			C-526.19-791.11-525.79-790.71-525.79-790.22z"/>
		<path class="st3" d="M-324.65-873.29c0,0.49-0.4,0.89-0.89,0.89c-0.49,0-0.89-0.4-0.89-0.89c0-0.49,0.4-0.89,0.89-0.89
			C-325.05-874.17-324.65-873.78-324.65-873.29z"/>
		<path class="st3" d="M-589.98-1009.99c0,0.49-0.4,0.89-0.89,0.89c-0.49,0-0.89-0.4-0.89-0.89c0-0.49,0.4-0.89,0.89-0.89
			C-590.38-1010.87-589.98-1010.48-589.98-1009.99z"/>
		<path class="st3" d="M-632.16-821.01c0,1.23-1,2.23-2.24,2.23c-1.24,0-2.24-1-2.24-2.23c0-1.23,1-2.23,2.24-2.23
			C-633.16-823.24-632.16-822.24-632.16-821.01z"/>
		<path class="st3" d="M-384.48-873.29c0,1.23-1,2.23-2.24,2.23c-1.24,0-2.24-1-2.24-2.23c0-1.23,1-2.23,2.24-2.23
			C-385.48-875.51-384.48-874.52-384.48-873.29z"/>
		<path class="st3" d="M-712.92-1039.43c0,1.23-1,2.23-2.24,2.23c-1.24,0-2.24-1-2.24-2.23c0-1.23,1-2.23,2.24-2.23
			C-713.92-1041.66-712.92-1040.67-712.92-1039.43z"/>
		<ellipse class="st3" cx="-341.43" cy="-835.92" rx="2.24" ry="2.23"/>
		<path class="st3" d="M-585.86-1042.16c0,0.49-0.4,0.89-0.89,0.89c-0.49,0-0.89-0.4-0.89-0.89c0-0.49,0.4-0.89,0.89-0.89
			C-586.26-1043.05-585.86-1042.65-585.86-1042.16z"/>
		<path class="st3" d="M-455.82-786.44c0,1.23-1,2.23-2.24,2.23c-1.24,0-2.24-1-2.24-2.23c0-1.23,1-2.23,2.24-2.23
			C-456.82-788.66-455.82-787.67-455.82-786.44z"/>
		<path class="st3" d="M-541.16-1025.83c0,1.23-1,2.23-2.24,2.23c-1.24,0-2.24-1-2.24-2.23c0-1.23,1-2.23,2.24-2.23
			C-542.16-1028.06-541.16-1027.06-541.16-1025.83z"/>
		<path class="st3" d="M-509.15-859.85c0,0.49-0.4,0.89-0.89,0.89c-0.49,0-0.89-0.4-0.89-0.89c0-0.49,0.4-0.89,0.89-0.89
			C-509.55-860.73-509.15-860.34-509.15-859.85z"/>
		<path class="st3" d="M-588.29-818.41c0,0.49-0.4,0.89-0.89,0.89c-0.49,0-0.89-0.4-0.89-0.89c0-0.49,0.4-0.89,0.89-0.89
			C-588.69-819.3-588.29-818.9-588.29-818.41z"/>
		<path class="st3" d="M-410.83-908.31c0,1.23-1,2.23-2.24,2.23c-1.24,0-2.24-1-2.24-2.23c0-1.23,1-2.23,2.24-2.23
			C-411.84-910.54-410.83-909.54-410.83-908.31z"/>
		<path class="st3" d="M-674.25-857.62c0,1.23-1,2.23-2.24,2.23s-2.24-1-2.24-2.23c0-1.23,1-2.23,2.24-2.23
			S-674.25-858.85-674.25-857.62z"/>
		<path class="st3" d="M-438.32-907.32c0,1.23-1,2.23-2.24,2.23s-2.24-1-2.24-2.23c0-1.23,1-2.23,2.24-2.23
			S-438.32-908.55-438.32-907.32z"/>
		<ellipse class="st3" cx="-738.71" cy="-795.47" rx="2.24" ry="2.23"/>
		<path class="st3" d="M-433.52-819.29c0,1.23-1,2.23-2.24,2.23c-1.24,0-2.24-1-2.24-2.23c0-1.23,1-2.23,2.24-2.23
			C-434.52-821.52-433.52-820.52-433.52-819.29z"/>
		<path class="st3" d="M-564.45-923.22c0,1.23-1,2.23-2.24,2.23c-1.24,0-2.24-1-2.24-2.23c0-1.23,1-2.23,2.24-2.23
			C-565.46-925.45-564.45-924.45-564.45-923.22z"/>
		<path class="st3" d="M-579.29-863.91c0,0.49-0.4,0.89-0.89,0.89c-0.49,0-0.89-0.4-0.89-0.89c0-0.49,0.4-0.89,0.89-0.89
			C-579.69-864.8-579.29-864.4-579.29-863.91z"/>
		<path class="st3" d="M-337.38-846.24c0,0.49-0.4,0.89-0.89,0.89c-0.49,0-0.89-0.4-0.89-0.89c0-0.49,0.4-0.89,0.89-0.89
			C-337.78-847.13-337.38-846.73-337.38-846.24z"/>
		<path class="st3" d="M-416.53-804.81c0,0.49-0.4,0.89-0.89,0.89c-0.49,0-0.89-0.4-0.89-0.89c0-0.49,0.4-0.89,0.89-0.89
			C-416.93-805.7-416.53-805.3-416.53-804.81z"/>
		<path class="st3" d="M-685.66-894.7c0,1.23-1,2.23-2.24,2.23c-1.24,0-2.24-1-2.24-2.23c0-1.23,1-2.23,2.24-2.23
			C-686.66-896.93-685.66-895.93-685.66-894.7z"/>
		<path class="st3" d="M-502.48-844.02c0,1.23-1,2.23-2.24,2.23c-1.24,0-2.24-1-2.24-2.23c0-1.23,1-2.23,2.24-2.23
			C-503.49-846.24-502.48-845.25-502.48-844.02z"/>
		<path class="st3" d="M-544.19-907.63c0,1.23-1,2.23-2.24,2.23c-1.24,0-2.24-1-2.24-2.23c0-1.23,1-2.23,2.24-2.23
			C-545.2-909.86-544.19-908.86-544.19-907.63z"/>
		<path class="st3" d="M-1047.11-1095.03c0,1.23-1,2.23-2.24,2.23c-1.24,0-2.24-1-2.24-2.23s1-2.23,2.24-2.23
			C-1048.11-1097.26-1047.11-1096.26-1047.11-1095.03z"/>
		<path class="st3" d="M-1133.52-1126.86c0,1.23-1,2.23-2.24,2.23c-1.24,0-2.24-1-2.24-2.23c0-1.23,1-2.23,2.24-2.23
			C-1134.52-1129.09-1133.52-1128.09-1133.52-1126.86z"/>
	</g>
	<g>
		<path class="st3" d="M477.1,78.23c0,0.49-0.4,0.89-0.89,0.89c-0.49,0-0.89-0.4-0.89-0.89c0-0.49,0.4-0.89,0.89-0.89
			C476.7,77.35,477.1,77.74,477.1,78.23z"/>
		<path class="st3" d="M717.1,141.99c0,0.49-0.4,0.89-0.89,0.89c-0.49,0-0.89-0.4-0.89-0.89c0-0.49,0.4-0.89,0.89-0.89
			C716.69,141.1,717.1,141.5,717.1,141.99z"/>
		<path class="st3" d="M796.35,14.39c0,1.23-1,2.23-2.24,2.23c-1.24,0-2.24-1-2.24-2.23s1-2.23,2.24-2.23
			C795.35,12.16,796.35,13.16,796.35,14.39z"/>
		<ellipse class="st3" cx="592.78" cy="113.88" rx="2.24" ry="2.23"/>
		<path class="st3" d="M606.16,48.64c0,1.23-1,2.23-2.24,2.23c-1.24,0-2.24-1-2.24-2.23c0-1.23,1-2.23,2.24-2.23
			C605.16,46.41,606.16,47.41,606.16,48.64z"/>
		<path class="st3" d="M439.94,126.36c0,1.23-1,2.23-2.24,2.23c-1.24,0-2.24-1-2.24-2.23c0-1.23,1-2.23,2.24-2.23
			C438.94,124.14,439.94,125.13,439.94,126.36z"/>
		<path class="st3" d="M946.39,200.31c0,1.23-1,2.23-2.24,2.23s-2.24-1-2.24-2.23c0-1.23,1-2.23,2.24-2.23
			S946.39,199.08,946.39,200.31z"/>
		<path class="st3" d="M474.62,117.09c0,0.49-0.4,0.89-0.89,0.89c-0.49,0-0.89-0.4-0.89-0.89c0-0.49,0.4-0.89,0.89-0.89
			C474.22,116.21,474.62,116.6,474.62,117.09z"/>
		<path class="st3" d="M648.86,91.84c0,0.49-0.4,0.89-0.89,0.89c-0.49,0-0.89-0.4-0.89-0.89c0-0.49,0.4-0.89,0.89-0.89
			C648.46,90.95,648.86,91.35,648.86,91.84z"/>
		<path class="st3" d="M398.66,125.81c0,0.49-0.4,0.89-0.89,0.89c-0.49,0-0.89-0.4-0.89-0.89c0-0.49,0.4-0.89,0.89-0.89
			C398.26,124.92,398.66,125.32,398.66,125.81z"/>
		<path class="st3" d="M751.76,86.22c0,1.23-1,2.23-2.24,2.23s-2.24-1-2.24-2.23c0-1.23,1-2.23,2.24-2.23S751.76,84.99,751.76,86.22
			z"/>
		<path class="st3" d="M457.88,100.11c0,1.23-1,2.23-2.24,2.23c-1.24,0-2.24-1-2.24-2.23c0-1.23,1-2.23,2.24-2.23
			C456.88,97.88,457.88,98.88,457.88,100.11z"/>
		<path class="st3" d="M840.22,16.99c0,0.49-0.4,0.89-0.89,0.89c-0.49,0-0.89-0.4-0.89-0.89c0-0.49,0.4-0.89,0.89-0.89
			C839.82,16.1,840.22,16.5,840.22,16.99z"/>
		<path class="st3" d="M642.48,117.47c0,0.49-0.4,0.89-0.89,0.89c-0.49,0-0.89-0.4-0.89-0.89c0-0.49,0.4-0.89,0.89-0.89
			C642.08,116.58,642.48,116.98,642.48,117.47z"/>
		<path class="st3" d="M474.83,71.69c0,0.49-0.4,0.89-0.89,0.89c-0.49,0-0.89-0.4-0.89-0.89c0-0.49,0.4-0.89,0.89-0.89
			C474.43,70.8,474.83,71.2,474.83,71.69z"/>
		<path class="st3" d="M816.53,31.94c0,1.23-1,2.23-2.24,2.23c-1.24,0-2.24-1-2.24-2.23c0-1.23,1-2.23,2.24-2.23
			C815.53,29.72,816.53,30.71,816.53,31.94z"/>
		<path class="st3" d="M519.54,88.02c0,1.23-1,2.23-2.24,2.23c-1.24,0-2.24-1-2.24-2.23c0-1.23,1-2.23,2.24-2.23
			C518.54,85.79,519.54,86.79,519.54,88.02z"/>
		<path class="st3" d="M646.6,85.3c0,0.49-0.4,0.89-0.89,0.89c-0.49,0-0.89-0.4-0.89-0.89c0-0.49,0.4-0.89,0.89-0.89
			C646.2,84.41,646.6,84.8,646.6,85.3z"/>
		<path class="st3" d="M520.52,130.19c0,1.23-1,2.23-2.24,2.23s-2.24-1-2.24-2.23c0-1.23,1-2.23,2.24-2.23
			S520.52,128.96,520.52,130.19z"/>
		<path class="st3" d="M691.3,101.62c0,1.23-1,2.23-2.24,2.23c-1.24,0-2.24-1-2.24-2.23c0-1.23,1-2.23,2.24-2.23
			C690.3,99.4,691.3,100.39,691.3,101.62z"/>
		<path class="st3" d="M78.38,89.29c0,0.49-0.4,0.89-0.89,0.89c-0.49,0-0.89-0.4-0.89-0.89c0-0.49,0.4-0.89,0.89-0.89
			C77.98,88.4,78.38,88.8,78.38,89.29z"/>
		<path class="st3" d="M348.17,43.83c0,1.23-1,2.23-2.24,2.23c-1.24,0-2.24-1-2.24-2.23c0-1.23,1-2.23,2.24-2.23
			C347.17,41.6,348.17,42.6,348.17,43.83z"/>
		<path class="st3" d="M250.15,102.89c0,0.49-0.4,0.89-0.89,0.89c-0.49,0-0.89-0.4-0.89-0.89c0-0.49,0.4-0.89,0.89-0.89
			C249.75,102,250.15,102.4,250.15,102.89z"/>
		<path class="st3" d="M82.5,57.11c0,0.49-0.4,0.89-0.89,0.89c-0.49,0-0.89-0.4-0.89-0.89c0-0.49,0.4-0.89,0.89-0.89
			C82.1,56.22,82.5,56.62,82.5,57.11z"/>
		<ellipse class="st3" cx="123.13" cy="18.52" rx="2.24" ry="2.23"/>
		<path class="st3" d="M265.55,51.35c0,1.23-1,2.23-2.24,2.23c-1.24,0-2.24-1-2.24-2.23c0-1.23,1-2.23,2.24-2.23
			C264.55,49.12,265.55,50.12,265.55,51.35z"/>
		<path class="st3" d="M215.68,106c0,1.23-1,2.23-2.24,2.23c-1.24,0-2.24-1-2.24-2.23c0-1.23,1-2.23,2.24-2.23
			C214.68,103.77,215.68,104.77,215.68,106z"/>
		<path class="st3" d="M100.72,74.45c0,0.49-0.4,0.89-0.89,0.89c-0.49,0-0.89-0.4-0.89-0.89c0-0.49,0.4-0.89,0.89-0.89
			C100.32,73.56,100.72,73.96,100.72,74.45z"/>
		<path class="st3" d="M220.85,148.3c0,0.49-0.4,0.89-0.89,0.89c-0.49,0-0.89-0.4-0.89-0.89c0-0.49,0.4-0.89,0.89-0.89
			C220.45,147.41,220.85,147.81,220.85,148.3z"/>
		<path class="st3" d="M401.98,82.24c0,0.49-0.4,0.89-0.89,0.89c-0.49,0-0.89-0.4-0.89-0.89c0-0.49,0.4-0.89,0.89-0.89
			C401.58,81.35,401.98,81.74,401.98,82.24z"/>
		<path class="st3" d="M94.48,134.51c0,1.23-1,2.23-2.24,2.23c-1.24,0-2.24-1-2.24-2.23c0-1.23,1-2.23,2.24-2.23
			C93.47,132.28,94.48,133.28,94.48,134.51z"/>
		<path class="st3" d="M342.16,82.24c0,1.23-1,2.23-2.24,2.23c-1.24,0-2.24-1-2.24-2.23c0-1.23,1-2.23,2.24-2.23
			C341.16,80.01,342.16,81,342.16,82.24z"/>
		<ellipse class="st3" cx="385.2" cy="119.6" rx="2.24" ry="2.23"/>
		<path class="st3" d="M188.82,136.08c0,1.23-1,2.23-2.24,2.23c-1.24,0-2.24-1-2.24-2.23s1-2.23,2.24-2.23
			C187.82,133.86,188.82,134.85,188.82,136.08z"/>
		<path class="st3" d="M217.49,95.67c0,0.49-0.4,0.89-0.89,0.89c-0.49,0-0.89-0.4-0.89-0.89c0-0.49,0.4-0.89,0.89-0.89
			C217.09,94.79,217.49,95.18,217.49,95.67z"/>
		<path class="st3" d="M138.34,137.11c0,0.49-0.4,0.89-0.89,0.89c-0.49,0-0.89-0.4-0.89-0.89c0-0.49,0.4-0.89,0.89-0.89
			C137.94,136.22,138.34,136.62,138.34,137.11z"/>
		<path class="st3" d="M315.8,47.21c0,1.23-1,2.23-2.24,2.23c-1.24,0-2.24-1-2.24-2.23s1-2.23,2.24-2.23
			C314.8,44.98,315.8,45.98,315.8,47.21z"/>
		<path class="st3" d="M52.39,97.9c0,1.23-1,2.23-2.24,2.23s-2.24-1-2.24-2.23c0-1.23,1-2.23,2.24-2.23S52.39,96.67,52.39,97.9z"/>
		<path class="st3" d="M288.31,48.2c0,1.23-1,2.23-2.24,2.23s-2.24-1-2.24-2.23c0-1.23,1-2.23,2.24-2.23S288.31,46.97,288.31,48.2z"
			/>
		<path class="st3" d="M293.12,136.23c0,1.23-1,2.23-2.24,2.23c-1.24,0-2.24-1-2.24-2.23c0-1.23,1-2.23,2.24-2.23
			C292.12,134,293.12,135,293.12,136.23z"/>
		<path class="st3" d="M162.18,32.3c0,1.23-1,2.23-2.24,2.23c-1.24,0-2.24-1-2.24-2.23c0-1.23,1-2.23,2.24-2.23
			C161.18,30.07,162.18,31.07,162.18,32.3z"/>
		<path class="st3" d="M147.35,91.61c0,0.49-0.4,0.89-0.89,0.89c-0.49,0-0.89-0.4-0.89-0.89c0-0.49,0.4-0.89,0.89-0.89
			C146.95,90.72,147.35,91.12,147.35,91.61z"/>
		<path class="st3" d="M389.25,109.28c0,0.49-0.4,0.89-0.89,0.89c-0.49,0-0.89-0.4-0.89-0.89c0-0.49,0.4-0.89,0.89-0.89
			C388.85,108.39,389.25,108.79,389.25,109.28z"/>
		<path class="st3" d="M310.11,150.71c0,0.49-0.4,0.89-0.89,0.89c-0.49,0-0.89-0.4-0.89-0.89c0-0.49,0.4-0.89,0.89-0.89
			C309.71,149.82,310.11,150.22,310.11,150.71z"/>
		<path class="st3" d="M40.98,60.82c0,1.23-1,2.23-2.24,2.23c-1.24,0-2.24-1-2.24-2.23c0-1.23,1-2.23,2.24-2.23
			C39.98,58.59,40.98,59.59,40.98,60.82z"/>
		<path class="st3" d="M224.15,111.5c0,1.23-1,2.23-2.24,2.23c-1.24,0-2.24-1-2.24-2.23c0-1.23,1-2.23,2.24-2.23
			C223.15,109.28,224.15,110.27,224.15,111.5z"/>
		<path class="st3" d="M182.44,47.89c0,1.23-1,2.23-2.24,2.23c-1.24,0-2.24-1-2.24-2.23c0-1.23,1-2.23,2.24-2.23
			C181.44,45.66,182.44,46.66,182.44,47.89z"/>
	</g>
	<polygon class="st1" points="120.89,314.84 165.08,286.28 257.08,323.72 	"/>
	<path class="st4" d="M960,316.53V360H0v-45.51l88.24-44.81l93.86,45.6c21.9,2.72,169.77,0,169.77,0S390,317,388.82,304.36H415
		c0,0-4,12.13,33.73,12.13c37.05,0,233.48,0.01,322.79,0.01c27.04,0,44.26,0,44.26,0s6.44,0.29,14.55-0.84
		c12.98-1.81,30.25-7.27,32.32-23.42h58.78C921.43,292.24,919.71,315.8,960,316.53z"/>
</g>
<g id="Camada_3">
	<g>
		<path class="st2" d="M193.15,180.55c-2.56-1.39-4.58-3.32-6.03-5.78c-1.46-2.46-2.18-5.24-2.18-8.33s0.73-5.87,2.21-8.33
			c1.47-2.46,3.49-4.39,6.05-5.78c2.57-1.4,5.44-2.09,8.62-2.09c2.58,0,4.93,0.45,7.06,1.35c2.13,0.9,3.93,2.2,5.4,3.92l-3.78,3.55
			c-2.28-2.46-5.08-3.69-8.42-3.69c-2.16,0-4.1,0.47-5.81,1.42s-3.04,2.26-4,3.94c-0.96,1.68-1.44,3.58-1.44,5.71
			c0,2.13,0.48,4.04,1.44,5.71c0.96,1.68,2.29,2.99,4,3.94s3.65,1.42,5.81,1.42c3.33,0,6.13-1.25,8.42-3.74l3.78,3.6
			c-1.47,1.71-3.28,3.02-5.42,3.91c-2.15,0.9-4.51,1.35-7.09,1.35C198.59,182.64,195.71,181.94,193.15,180.55z"/>
		<path class="st2" d="M236.44,160.43c1.87,1.7,2.81,4.25,2.81,7.67v14.08h-5.31v-2.92c-0.69,1.05-1.67,1.85-2.95,2.41
			c-1.28,0.55-2.81,0.83-4.61,0.83c-1.8,0-3.38-0.31-4.73-0.92c-1.35-0.61-2.39-1.47-3.13-2.56c-0.74-1.09-1.1-2.33-1.1-3.71
			c0-2.16,0.8-3.89,2.41-5.2c1.6-1.31,4.13-1.96,7.58-1.96h6.21v-0.36c0-1.68-0.5-2.97-1.51-3.87c-1.01-0.9-2.5-1.35-4.48-1.35
			c-1.35,0-2.68,0.21-3.98,0.63c-1.3,0.42-2.41,1.01-3.31,1.75l-2.2-4.09c1.26-0.96,2.77-1.69,4.54-2.21
			c1.77-0.51,3.65-0.76,5.63-0.76C231.86,157.89,234.56,158.74,236.44,160.43z M231.31,177.44c1.09-0.65,1.87-1.57,2.32-2.77v-2.79
			h-5.81c-3.24,0-4.86,1.06-4.86,3.19c0,1.02,0.4,1.83,1.21,2.43c0.81,0.6,1.94,0.9,3.38,0.9
			C228.96,178.41,230.21,178.09,231.31,177.44z"/>
		<path class="st2" d="M260.36,157.89v5.35c-0.48-0.09-0.92-0.13-1.31-0.13c-2.19,0-3.9,0.64-5.13,1.91
			c-1.23,1.28-1.85,3.11-1.85,5.51v11.65h-5.63v-24.03h5.35v3.51C253.43,159.15,256.27,157.89,260.36,157.89z"/>
		<path class="st2" d="M265.13,148.8h5.63v33.39h-5.63V148.8z"/>
		<path class="st2" d="M282.36,180.93c-1.95-1.05-3.47-2.51-4.57-4.39c-1.1-1.88-1.64-4-1.64-6.37s0.55-4.49,1.64-6.35
			c1.09-1.86,2.62-3.31,4.57-4.36s4.14-1.58,6.57-1.58c2.46,0,4.66,0.53,6.62,1.58c1.95,1.05,3.47,2.5,4.57,4.36
			c1.09,1.86,1.64,3.98,1.64,6.35s-0.55,4.49-1.64,6.37c-1.1,1.88-2.62,3.34-4.57,4.39c-1.95,1.05-4.16,1.57-6.62,1.57
			C286.5,182.5,284.31,181.98,282.36,180.93z M294.06,175.62c1.35-1.38,2.02-3.19,2.02-5.44s-0.67-4.07-2.02-5.45
			c-1.35-1.38-3.06-2.07-5.13-2.07c-2.07,0-3.77,0.69-5.11,2.07c-1.34,1.38-2,3.2-2,5.45s0.67,4.07,2,5.44
			c1.33,1.38,3.04,2.07,5.11,2.07C291,177.69,292.71,177,294.06,175.62z"/>
		<path class="st2" d="M308.86,181.74c-1.86-0.51-3.35-1.15-4.46-1.93l2.16-4.28c1.08,0.72,2.38,1.3,3.89,1.73
			c1.51,0.44,3.01,0.65,4.48,0.65c3.36,0,5.04-0.88,5.04-2.65c0-0.84-0.43-1.42-1.28-1.75c-0.85-0.33-2.23-0.65-4.12-0.95
			c-1.98-0.3-3.59-0.64-4.84-1.04c-1.25-0.39-2.33-1.07-3.24-2.05c-0.92-0.97-1.37-2.33-1.37-4.07c0-2.28,0.95-4.1,2.86-5.47
			c1.91-1.36,4.48-2.05,7.72-2.05c1.65,0,3.3,0.19,4.95,0.56c1.65,0.38,3,0.88,4.05,1.51l-2.16,4.28c-2.04-1.2-4.34-1.8-6.88-1.8
			c-1.65,0-2.9,0.25-3.76,0.74s-1.28,1.15-1.28,1.96c0,0.9,0.46,1.54,1.37,1.91c0.92,0.38,2.33,0.73,4.25,1.06
			c1.92,0.3,3.49,0.65,4.72,1.04c1.23,0.39,2.29,1.05,3.17,1.98c0.88,0.93,1.33,2.25,1.33,3.96c0,2.25-0.98,4.05-2.92,5.4
			c-1.95,1.35-4.61,2.02-7.96,2.02C312.63,182.5,310.72,182.25,308.86,181.74z"/>
		<path class="st2" d="M349.25,180.55c-2.56-1.39-4.58-3.32-6.03-5.78s-2.18-5.24-2.18-8.33s0.73-5.87,2.2-8.33
			c1.47-2.46,3.49-4.39,6.05-5.78c2.57-1.4,5.44-2.09,8.62-2.09c2.58,0,4.93,0.45,7.06,1.35c2.13,0.9,3.93,2.2,5.4,3.92l-3.78,3.55
			c-2.28-2.46-5.08-3.69-8.42-3.69c-2.16,0-4.09,0.47-5.8,1.42s-3.05,2.26-4,3.94c-0.96,1.68-1.44,3.58-1.44,5.71
			c0,2.13,0.48,4.04,1.44,5.71c0.96,1.68,2.29,2.99,4,3.94s3.64,1.42,5.8,1.42c3.33,0,6.13-1.25,8.42-3.74l3.78,3.6
			c-1.47,1.71-3.28,3.02-5.42,3.91c-2.15,0.9-4.51,1.35-7.09,1.35C354.69,182.64,351.82,181.94,349.25,180.55z"/>
		<path class="st2" d="M378.79,180.93c-1.95-1.05-3.47-2.51-4.57-4.39c-1.1-1.88-1.64-4-1.64-6.37s0.55-4.49,1.64-6.35
			c1.09-1.86,2.62-3.31,4.57-4.36s4.14-1.58,6.57-1.58c2.46,0,4.66,0.53,6.62,1.58c1.95,1.05,3.47,2.5,4.57,4.36
			c1.09,1.86,1.64,3.98,1.64,6.35s-0.55,4.49-1.64,6.37c-1.1,1.88-2.62,3.34-4.57,4.39c-1.95,1.05-4.16,1.57-6.62,1.57
			C382.93,182.5,380.74,181.98,378.79,180.93z M390.49,175.62c1.35-1.38,2.02-3.19,2.02-5.44s-0.67-4.07-2.02-5.45
			c-1.35-1.38-3.06-2.07-5.13-2.07c-2.07,0-3.77,0.69-5.11,2.07c-1.34,1.38-2,3.2-2,5.45s0.67,4.07,2,5.44
			c1.33,1.38,3.04,2.07,5.11,2.07C387.43,177.69,389.14,177,390.49,175.62z"/>
		<path class="st2" d="M405.3,181.74c-1.86-0.51-3.35-1.15-4.46-1.93l2.16-4.28c1.08,0.72,2.38,1.3,3.89,1.73
			c1.51,0.44,3.01,0.65,4.48,0.65c3.36,0,5.04-0.88,5.04-2.65c0-0.84-0.43-1.42-1.28-1.75c-0.85-0.33-2.23-0.65-4.12-0.95
			c-1.98-0.3-3.59-0.64-4.84-1.04c-1.25-0.39-2.33-1.07-3.24-2.05c-0.92-0.97-1.37-2.33-1.37-4.07c0-2.28,0.95-4.1,2.86-5.47
			c1.91-1.36,4.48-2.05,7.72-2.05c1.65,0,3.3,0.19,4.95,0.56c1.65,0.38,3,0.88,4.05,1.51l-2.16,4.28c-2.04-1.2-4.34-1.8-6.88-1.8
			c-1.65,0-2.9,0.25-3.76,0.74s-1.28,1.15-1.28,1.96c0,0.9,0.46,1.54,1.37,1.91c0.92,0.38,2.33,0.73,4.25,1.06
			c1.92,0.3,3.49,0.65,4.72,1.04c1.23,0.39,2.29,1.05,3.17,1.98c0.88,0.93,1.33,2.25,1.33,3.96c0,2.25-0.98,4.05-2.92,5.4
			c-1.95,1.35-4.61,2.02-7.96,2.02C409.06,182.5,407.16,182.25,405.3,181.74z"/>
		<path class="st2" d="M441.21,180.88c-0.66,0.54-1.46,0.94-2.41,1.21c-0.95,0.27-1.94,0.41-2.99,0.41c-2.64,0-4.68-0.69-6.12-2.07
			c-1.44-1.38-2.16-3.39-2.16-6.03v-11.56h-3.96v-4.5h3.96v-5.49h5.63v5.49h6.43v4.5h-6.43v11.43c0,1.17,0.29,2.06,0.85,2.68
			c0.57,0.62,1.4,0.92,2.48,0.92c1.26,0,2.31-0.33,3.15-0.99L441.21,180.88z"/>
		<path class="st2" d="M463.14,160.43c1.88,1.7,2.81,4.25,2.81,7.67v14.08h-5.31v-2.92c-0.69,1.05-1.67,1.85-2.95,2.41
			c-1.28,0.55-2.81,0.83-4.61,0.83c-1.8,0-3.38-0.31-4.72-0.92c-1.35-0.61-2.39-1.47-3.13-2.56c-0.74-1.09-1.1-2.33-1.1-3.71
			c0-2.16,0.8-3.89,2.41-5.2c1.6-1.31,4.13-1.96,7.58-1.96h6.21v-0.36c0-1.68-0.5-2.97-1.51-3.87c-1.01-0.9-2.5-1.35-4.48-1.35
			c-1.35,0-2.68,0.21-3.98,0.63c-1.31,0.42-2.41,1.01-3.31,1.75l-2.21-4.09c1.26-0.96,2.77-1.69,4.54-2.21
			c1.77-0.51,3.64-0.76,5.63-0.76C458.56,157.89,461.27,158.74,463.14,160.43z M458.01,177.44c1.09-0.65,1.87-1.57,2.32-2.77v-2.79
			h-5.8c-3.24,0-4.86,1.06-4.86,3.19c0,1.02,0.41,1.83,1.22,2.43c0.81,0.6,1.93,0.9,3.38,0.9
			C455.67,178.41,456.92,178.09,458.01,177.44z"/>
		<path class="st2" d="M486.12,148.8h5.18v42.12h-5.18V148.8z"/>
		<path class="st2" d="M542.37,152.8c3.21,1.68,5.71,4.02,7.49,7.02c1.78,3,2.68,6.39,2.68,10.17c0,3.9-0.76,6.95-2.29,9.16
			c-1.53,2.2-3.64,3.31-6.34,3.31c-1.44,0-2.66-0.34-3.65-1.01c-0.99-0.68-1.68-1.64-2.07-2.9c-1.8,2.61-4.5,3.91-8.1,3.91
			c-2.04,0-3.88-0.49-5.53-1.46c-1.65-0.97-2.94-2.33-3.87-4.07c-0.93-1.74-1.4-3.72-1.4-5.94c0-2.19,0.46-4.15,1.4-5.87
			c0.93-1.73,2.22-3.08,3.87-4.05c1.65-0.97,3.49-1.46,5.53-1.46c1.59,0,3.02,0.27,4.3,0.81c1.27,0.54,2.35,1.34,3.22,2.39v-2.93h5
			v15.3c0,1.08,0.22,1.86,0.65,2.34c0.43,0.48,1,0.72,1.69,0.72c1.23,0,2.17-0.7,2.81-2.09c0.64-1.39,0.97-3.41,0.97-6.05
			c0-3.18-0.73-5.98-2.18-8.41c-1.46-2.43-3.49-4.32-6.1-5.67c-2.61-1.35-5.61-2.02-9-2.02c-3.42,0-6.45,0.71-9.09,2.14
			c-2.64,1.42-4.68,3.41-6.12,5.96c-1.44,2.55-2.16,5.45-2.16,8.69c0,3.3,0.71,6.23,2.14,8.77c1.42,2.55,3.44,4.54,6.05,5.96
			c2.61,1.42,5.61,2.14,9,2.14c1.47,0,2.96-0.17,4.48-0.5c1.51-0.33,2.93-0.83,4.25-1.49l1.21,3.6c-1.32,0.69-2.87,1.21-4.66,1.57
			c-1.79,0.36-3.55,0.54-5.29,0.54c-4.2,0-7.91-0.88-11.14-2.65c-3.23-1.77-5.73-4.22-7.52-7.33c-1.79-3.12-2.68-6.66-2.68-10.62
			c0-3.9,0.9-7.4,2.7-10.51c1.8-3.11,4.33-5.54,7.58-7.31c3.25-1.77,7-2.65,11.23-2.65C535.51,150.28,539.16,151.12,542.37,152.8z
			 M535.82,176.18c1.24-1.27,1.87-3.01,1.87-5.2c0-2.16-0.62-3.87-1.87-5.13c-1.25-1.26-2.84-1.89-4.79-1.89
			c-1.98,0-3.58,0.64-4.82,1.91c-1.23,1.28-1.84,2.98-1.84,5.11c0,2.16,0.61,3.89,1.84,5.17c1.23,1.29,2.84,1.94,4.82,1.94
			C532.98,178.09,534.57,177.46,535.82,176.18z"/>
		<path class="st2" d="M562.48,180.93c-1.98-1.05-3.53-2.51-4.63-4.39c-1.11-1.88-1.67-4-1.67-6.37s0.55-4.49,1.67-6.35
			c1.11-1.86,2.65-3.31,4.61-4.36s4.21-1.58,6.73-1.58c2.37,0,4.45,0.48,6.23,1.44c1.79,0.96,3.13,2.34,4.03,4.14l-4.32,2.52
			c-0.69-1.11-1.55-1.94-2.59-2.5c-1.04-0.55-2.17-0.83-3.4-0.83c-2.1,0-3.84,0.68-5.22,2.05c-1.38,1.37-2.07,3.19-2.07,5.47
			s0.68,4.1,2.05,5.47c1.36,1.37,3.11,2.05,5.24,2.05c1.23,0,2.36-0.28,3.4-0.83c1.04-0.56,1.9-1.39,2.59-2.5l4.32,2.52
			c-0.93,1.8-2.29,3.19-4.07,4.16c-1.79,0.98-3.85,1.46-6.19,1.46C566.7,182.5,564.46,181.98,562.48,180.93z"/>
		<path class="st2" d="M606.49,158.16l-10.31,24.03h-5.8l-10.3-24.03h5.85l7.47,17.82l7.7-17.82H606.49z"/>
		<path class="st2" d="M647.53,160.52c1.77,1.76,2.66,4.39,2.66,7.9v13.77h-5.63v-13.05c0-2.1-0.47-3.68-1.39-4.75
			c-0.93-1.06-2.27-1.6-4.01-1.6c-1.89,0-3.41,0.62-4.54,1.87c-1.14,1.25-1.71,3.02-1.71,5.33v12.19h-5.63v-13.05
			c0-2.1-0.46-3.68-1.39-4.75c-0.93-1.06-2.27-1.6-4-1.6c-1.92,0-3.44,0.62-4.57,1.84c-1.13,1.23-1.69,3.01-1.69,5.35v12.19H610
			v-24.03h5.35v3.06c0.9-1.08,2.03-1.91,3.38-2.48c1.35-0.57,2.85-0.85,4.5-0.85c1.8,0,3.4,0.34,4.79,1.01
			c1.39,0.67,2.5,1.67,3.31,2.99c0.99-1.26,2.27-2.24,3.83-2.95s3.29-1.06,5.17-1.06C643.36,157.89,645.76,158.77,647.53,160.52z"/>
		<path class="st2" d="M661.93,180.93c-1.98-1.05-3.53-2.51-4.63-4.39c-1.11-1.88-1.67-4-1.67-6.37s0.55-4.49,1.67-6.35
			c1.11-1.86,2.65-3.31,4.61-4.36s4.21-1.58,6.73-1.58c2.37,0,4.45,0.48,6.23,1.44c1.79,0.96,3.13,2.34,4.03,4.14l-4.32,2.52
			c-0.69-1.11-1.55-1.94-2.59-2.5c-1.04-0.55-2.17-0.83-3.4-0.83c-2.1,0-3.84,0.68-5.22,2.05c-1.38,1.37-2.07,3.19-2.07,5.47
			s0.68,4.1,2.05,5.47c1.36,1.37,3.11,2.05,5.24,2.05c1.23,0,2.36-0.28,3.4-0.83c1.04-0.56,1.9-1.39,2.59-2.5l4.32,2.52
			c-0.93,1.8-2.29,3.19-4.07,4.16c-1.79,0.98-3.85,1.46-6.19,1.46C666.15,182.5,663.91,181.98,661.93,180.93z"/>
		<path class="st2" d="M687.63,180.93c-1.95-1.05-3.47-2.51-4.57-4.39c-1.1-1.88-1.64-4-1.64-6.37s0.55-4.49,1.64-6.35
			c1.09-1.86,2.62-3.31,4.57-4.36s4.14-1.58,6.57-1.58c2.46,0,4.66,0.53,6.62,1.58c1.95,1.05,3.47,2.5,4.57,4.36
			c1.09,1.86,1.64,3.98,1.64,6.35s-0.55,4.49-1.64,6.37c-1.1,1.88-2.62,3.34-4.57,4.39c-1.95,1.05-4.16,1.57-6.62,1.57
			C691.77,182.5,689.58,181.98,687.63,180.93z M699.33,175.62c1.35-1.38,2.02-3.19,2.02-5.44s-0.67-4.07-2.02-5.45
			c-1.35-1.38-3.06-2.07-5.13-2.07c-2.07,0-3.77,0.69-5.11,2.07c-1.34,1.38-2,3.2-2,5.45s0.67,4.07,2,5.44
			c1.33,1.38,3.04,2.07,5.11,2.07C696.27,177.69,697.98,177,699.33,175.62z"/>
		<path class="st2" d="M714.13,181.74c-1.86-0.51-3.35-1.15-4.46-1.93l2.16-4.28c1.08,0.72,2.38,1.3,3.89,1.73
			c1.51,0.44,3.01,0.65,4.48,0.65c3.36,0,5.04-0.88,5.04-2.65c0-0.84-0.43-1.42-1.28-1.75c-0.85-0.33-2.23-0.65-4.12-0.95
			c-1.98-0.3-3.59-0.64-4.84-1.04c-1.25-0.39-2.33-1.07-3.24-2.05c-0.92-0.97-1.37-2.33-1.37-4.07c0-2.28,0.95-4.1,2.86-5.47
			c1.91-1.36,4.48-2.05,7.72-2.05c1.65,0,3.3,0.19,4.95,0.56c1.65,0.38,3,0.88,4.05,1.51l-2.16,4.28c-2.04-1.2-4.34-1.8-6.88-1.8
			c-1.65,0-2.9,0.25-3.76,0.74s-1.28,1.15-1.28,1.96c0,0.9,0.46,1.54,1.37,1.91c0.92,0.38,2.33,0.73,4.25,1.06
			c1.92,0.3,3.49,0.65,4.72,1.04c1.23,0.39,2.29,1.05,3.17,1.98c0.88,0.93,1.33,2.25,1.33,3.96c0,2.25-0.98,4.05-2.92,5.4
			c-1.95,1.35-4.61,2.02-7.96,2.02C717.89,182.5,715.99,182.25,714.13,181.74z"/>
		<path class="st2" d="M750.04,180.88c-0.66,0.54-1.46,0.94-2.41,1.21c-0.95,0.27-1.94,0.41-2.99,0.41c-2.64,0-4.68-0.69-6.12-2.07
			c-1.44-1.38-2.16-3.39-2.16-6.03v-11.56h-3.96v-4.5h3.96v-5.49h5.63v5.49h6.43v4.5h-6.43v11.43c0,1.17,0.29,2.06,0.85,2.68
			c0.57,0.62,1.4,0.92,2.48,0.92c1.26,0,2.31-0.33,3.15-0.99L750.04,180.88z"/>
		<path class="st2" d="M771.98,160.43c1.88,1.7,2.81,4.25,2.81,7.67v14.08h-5.31v-2.92c-0.69,1.05-1.67,1.85-2.95,2.41
			c-1.28,0.55-2.81,0.83-4.61,0.83c-1.8,0-3.38-0.31-4.72-0.92c-1.35-0.61-2.39-1.47-3.13-2.56c-0.74-1.09-1.1-2.33-1.1-3.71
			c0-2.16,0.8-3.89,2.41-5.2c1.6-1.31,4.13-1.96,7.58-1.96h6.21v-0.36c0-1.68-0.5-2.97-1.51-3.87c-1.01-0.9-2.5-1.35-4.48-1.35
			c-1.35,0-2.68,0.21-3.98,0.63c-1.31,0.42-2.41,1.01-3.31,1.75l-2.21-4.09c1.26-0.96,2.77-1.69,4.54-2.21
			c1.77-0.51,3.64-0.76,5.63-0.76C767.39,157.89,770.1,158.74,771.98,160.43z M766.85,177.44c1.09-0.65,1.87-1.57,2.32-2.77v-2.79
			h-5.8c-3.24,0-4.86,1.06-4.86,3.19c0,1.02,0.41,1.83,1.22,2.43c0.81,0.6,1.93,0.9,3.38,0.9
			C764.5,178.41,765.75,178.09,766.85,177.44z"/>
	</g>
	<g>
		<path class="st2" d="M272.98,199.28v6h6.61v1.33h-6.61v6.09h7.36v1.33h-9.11v-16.1h9.11v1.33H272.98z"/>
		<path class="st2" d="M283.83,204.35c0.57-0.97,1.34-1.73,2.33-2.25c0.99-0.53,2.11-0.79,3.36-0.79c1.2,0,2.28,0.27,3.24,0.81
			c0.96,0.54,1.67,1.23,2.12,2.09v-7.18h1.75v17.02h-1.75v-2.81c-0.42,0.87-1.1,1.59-2.05,2.15c-0.95,0.56-2.06,0.84-3.34,0.84
			c-1.25,0-2.37-0.27-3.36-0.8c-0.99-0.54-1.76-1.3-2.32-2.28c-0.56-0.98-0.84-2.12-0.84-3.4S283.27,205.32,283.83,204.35z
			 M294.21,205.1c-0.45-0.77-1.06-1.36-1.83-1.77s-1.63-0.62-2.56-0.62c-0.97,0-1.83,0.2-2.6,0.6c-0.77,0.4-1.37,0.98-1.81,1.74
			c-0.44,0.76-0.66,1.66-0.66,2.7c0,1.03,0.22,1.93,0.66,2.7c0.44,0.77,1.04,1.37,1.81,1.77s1.63,0.61,2.6,0.61
			c0.93,0,1.78-0.21,2.56-0.62s1.39-1,1.83-1.77c0.45-0.77,0.67-1.66,0.67-2.67C294.89,206.75,294.66,205.86,294.21,205.1z"/>
		<path class="st2" d="M310.83,197.97v1.33h-4.84v14.74h-1.75V199.3h-4.87v-1.33H310.83z"/>
		<path class="st2" d="M325.88,208.38h-11.3c0.05,0.95,0.3,1.76,0.75,2.44s1.04,1.18,1.77,1.53c0.73,0.34,1.53,0.52,2.4,0.52
			c1.13,0,2.08-0.25,2.86-0.76c0.77-0.51,1.29-1.19,1.53-2.05h1.85c-0.33,1.23-1.04,2.23-2.13,3c-1.09,0.77-2.46,1.16-4.1,1.16
			c-1.28,0-2.43-0.26-3.44-0.79c-1.02-0.53-1.81-1.28-2.38-2.25c-0.57-0.97-0.86-2.11-0.86-3.42c0-1.3,0.28-2.45,0.85-3.43
			c0.57-0.98,1.36-1.73,2.37-2.25c1.01-0.52,2.17-0.78,3.47-0.78s2.43,0.26,3.41,0.78s1.72,1.22,2.25,2.1
			c0.52,0.88,0.79,1.86,0.79,2.93C325.93,207.67,325.91,208.09,325.88,208.38z M323.55,204.68c-0.42-0.66-1-1.16-1.73-1.5
			c-0.73-0.34-1.53-0.51-2.4-0.51c-1.3,0-2.4,0.38-3.32,1.15s-1.42,1.85-1.52,3.24h9.58C324.18,206.14,323.97,205.34,323.55,204.68z
			"/>
		<path class="st2" d="M329.18,204.35c0.57-0.97,1.35-1.73,2.35-2.25c1-0.53,2.14-0.79,3.42-0.79c1.68,0,3.06,0.38,4.15,1.15
			c1.09,0.77,1.79,1.81,2.11,3.13h-1.87c-0.23-0.9-0.74-1.61-1.51-2.13c-0.77-0.51-1.73-0.77-2.88-0.77c-0.92,0-1.74,0.19-2.47,0.58
			c-0.73,0.38-1.31,0.96-1.73,1.71s-0.64,1.69-0.64,2.79c0,1.1,0.21,2.04,0.64,2.81s1,1.34,1.73,1.72c0.73,0.38,1.56,0.58,2.47,0.58
			c1.15,0,2.11-0.26,2.88-0.77c0.77-0.51,1.28-1.23,1.51-2.15h1.87c-0.32,1.29-1.02,2.32-2.12,3.1c-1.1,0.78-2.48,1.17-4.14,1.17
			c-1.28,0-2.42-0.26-3.42-0.79s-1.78-1.28-2.35-2.25c-0.57-0.97-0.85-2.11-0.85-3.42C328.33,206.46,328.61,205.32,329.18,204.35z"
			/>
		<path class="st2" d="M353.69,201.85c0.82,0.4,1.47,1.01,1.95,1.83s0.71,1.82,0.71,3v7.36h-1.72v-7.18c0-1.37-0.37-2.41-1.11-3.13
			s-1.75-1.08-3.03-1.08c-1.31,0-2.36,0.38-3.14,1.15c-0.78,0.77-1.17,1.89-1.17,3.38v6.85h-1.75v-17.02h1.75v6.6
			c0.43-0.75,1.07-1.33,1.91-1.75c0.84-0.41,1.78-0.62,2.83-0.62C351.94,201.25,352.87,201.45,353.69,201.85z"/>
		<path class="st2" d="M377.19,198.93c1.38,0.64,2.44,1.57,3.17,2.78c0.73,1.21,1.1,2.65,1.1,4.32c0,1.66-0.37,3.09-1.1,4.29
			c-0.73,1.2-1.79,2.12-3.17,2.76c-1.38,0.64-3.04,0.95-4.97,0.95h-5.17v-16.08h5.17C374.15,197.97,375.81,198.29,377.19,198.93z
			 M377.77,210.95c1.27-1.17,1.91-2.81,1.91-4.91c0-2.12-0.64-3.77-1.91-4.96c-1.27-1.19-3.12-1.78-5.55-1.78h-3.42v13.41h3.42
			C374.65,212.71,376.5,212.12,377.77,210.95z"/>
		<path class="st2" d="M396.95,208.38h-11.3c0.05,0.95,0.3,1.76,0.75,2.44s1.04,1.18,1.77,1.53c0.73,0.34,1.53,0.52,2.4,0.52
			c1.13,0,2.08-0.25,2.86-0.76c0.77-0.51,1.29-1.19,1.53-2.05h1.85c-0.33,1.23-1.04,2.23-2.13,3c-1.09,0.77-2.46,1.16-4.1,1.16
			c-1.28,0-2.43-0.26-3.44-0.79c-1.02-0.53-1.81-1.28-2.38-2.25c-0.57-0.97-0.86-2.11-0.86-3.42c0-1.3,0.28-2.45,0.85-3.43
			c0.57-0.98,1.36-1.73,2.37-2.25c1.01-0.52,2.17-0.78,3.47-0.78s2.43,0.26,3.41,0.78s1.72,1.22,2.25,2.1
			c0.52,0.88,0.79,1.86,0.79,2.93C397,207.67,396.98,208.09,396.95,208.38z M394.62,204.68c-0.42-0.66-1-1.16-1.73-1.5
			c-0.73-0.34-1.53-0.51-2.4-0.51c-1.3,0-2.4,0.38-3.32,1.15s-1.42,1.85-1.52,3.24h9.58C395.25,206.14,395.04,205.34,394.62,204.68z
			"/>
		<path class="st2" d="M405.04,212.48l4.59-10.99h1.85l-5.46,12.56h-1.97l-5.46-12.56h1.87L405.04,212.48z"/>
		<path class="st2" d="M426.12,208.38h-11.3c0.05,0.95,0.3,1.76,0.75,2.44s1.04,1.18,1.77,1.53c0.73,0.34,1.53,0.52,2.4,0.52
			c1.13,0,2.08-0.25,2.86-0.76c0.77-0.51,1.29-1.19,1.53-2.05h1.85c-0.33,1.23-1.04,2.23-2.13,3c-1.09,0.77-2.46,1.16-4.1,1.16
			c-1.28,0-2.43-0.26-3.44-0.79c-1.02-0.53-1.81-1.28-2.38-2.25c-0.57-0.97-0.86-2.11-0.86-3.42c0-1.3,0.28-2.45,0.85-3.43
			c0.57-0.98,1.36-1.73,2.37-2.25c1.01-0.52,2.17-0.78,3.47-0.78s2.43,0.26,3.41,0.78s1.72,1.22,2.25,2.1
			c0.52,0.88,0.79,1.86,0.79,2.93C426.17,207.67,426.16,208.09,426.12,208.38z M423.79,204.68c-0.42-0.66-1-1.16-1.73-1.5
			c-0.73-0.34-1.53-0.51-2.4-0.51c-1.3,0-2.4,0.38-3.32,1.15s-1.42,1.85-1.52,3.24h9.58C424.42,206.14,424.21,205.34,423.79,204.68z
			"/>
		<path class="st2" d="M431.11,197.02v17.02h-1.75v-17.02H431.11z"/>
		<path class="st2" d="M437.59,213.43c-1.02-0.53-1.83-1.28-2.42-2.25s-0.89-2.11-0.89-3.42c0-1.3,0.3-2.44,0.9-3.42
			s1.41-1.73,2.45-2.25c1.03-0.53,2.19-0.79,3.47-0.79s2.44,0.26,3.48,0.79c1.04,0.53,1.85,1.28,2.45,2.25s0.89,2.11,0.89,3.42
			c0,1.29-0.3,2.42-0.9,3.4c-0.6,0.98-1.42,1.74-2.47,2.27c-1.05,0.53-2.21,0.79-3.49,0.79
			C439.76,214.23,438.61,213.96,437.59,213.43z M443.54,212.26c0.77-0.38,1.38-0.94,1.86-1.7c0.47-0.76,0.71-1.69,0.71-2.79
			c0-1.1-0.23-2.04-0.7-2.79s-1.08-1.33-1.85-1.7s-1.6-0.56-2.5-0.56s-1.73,0.19-2.5,0.56c-0.77,0.38-1.38,0.94-1.83,1.7
			s-0.69,1.69-0.69,2.79c0,1.1,0.23,2.04,0.69,2.79s1.06,1.33,1.82,1.7c0.76,0.38,1.58,0.56,2.48,0.56S442.78,212.64,443.54,212.26z
			"/>
		<path class="st2" d="M454.88,202.14c0.94-0.56,2.06-0.84,3.36-0.84c1.23,0,2.34,0.26,3.33,0.79c0.99,0.53,1.76,1.28,2.32,2.25
			c0.56,0.97,0.84,2.1,0.84,3.39s-0.28,2.42-0.84,3.4c-0.56,0.98-1.33,1.74-2.32,2.28c-0.99,0.54-2.1,0.8-3.33,0.8
			c-1.28,0-2.4-0.28-3.34-0.84s-1.64-1.26-2.07-2.1v8.69h-1.72v-18.49h1.72v2.76C453.26,203.4,453.94,202.7,454.88,202.14z
			 M462.29,205.04c-0.44-0.76-1.04-1.34-1.81-1.74c-0.77-0.4-1.63-0.6-2.6-0.6c-0.93,0-1.78,0.21-2.56,0.62
			c-0.77,0.41-1.38,1-1.83,1.77c-0.45,0.77-0.67,1.66-0.67,2.67c0,1.01,0.22,1.9,0.67,2.67c0.45,0.77,1.06,1.36,1.83,1.77
			c0.77,0.41,1.63,0.62,2.56,0.62c0.96,0,1.83-0.2,2.6-0.61c0.77-0.41,1.37-1,1.81-1.77s0.66-1.67,0.66-2.7
			C462.96,206.7,462.74,205.8,462.29,205.04z"/>
		<path class="st2" d="M480.22,208.38h-11.3c0.05,0.95,0.3,1.76,0.75,2.44s1.04,1.18,1.77,1.53c0.73,0.34,1.53,0.52,2.4,0.52
			c1.13,0,2.08-0.25,2.86-0.76c0.77-0.51,1.29-1.19,1.53-2.05h1.85c-0.33,1.23-1.04,2.23-2.13,3c-1.09,0.77-2.46,1.16-4.1,1.16
			c-1.28,0-2.43-0.26-3.44-0.79c-1.02-0.53-1.81-1.28-2.38-2.25c-0.57-0.97-0.86-2.11-0.86-3.42c0-1.3,0.28-2.45,0.85-3.43
			c0.57-0.98,1.36-1.73,2.37-2.25c1.01-0.52,2.17-0.78,3.47-0.78s2.43,0.26,3.41,0.78s1.72,1.22,2.25,2.1
			c0.52,0.88,0.79,1.86,0.79,2.93C480.27,207.67,480.26,208.09,480.22,208.38z M477.89,204.68c-0.42-0.66-1-1.16-1.73-1.5
			c-0.73-0.34-1.53-0.51-2.4-0.51c-1.3,0-2.4,0.38-3.32,1.15s-1.42,1.85-1.52,3.24h9.58C478.52,206.14,478.32,205.34,477.89,204.68z
			"/>
		<path class="st2" d="M486.98,201.9c0.79-0.43,1.76-0.64,2.91-0.64v1.68h-0.47c-1.26,0-2.28,0.31-3.04,0.94
			c-0.77,0.63-1.15,1.68-1.15,3.15v7.01h-1.75v-12.56h1.75v2.23C485.6,202.93,486.18,202.33,486.98,201.9z"/>
		<path class="st2" d="M499.38,204.35c0.56-0.97,1.33-1.73,2.32-2.25c0.99-0.53,2.11-0.79,3.36-0.79c1.3,0,2.42,0.28,3.36,0.83
			c0.94,0.55,1.62,1.26,2.03,2.12v-2.76h1.75v12.56h-1.75v-2.78c-0.43,0.86-1.12,1.57-2.06,2.13c-0.94,0.56-2.06,0.84-3.36,0.84
			c-1.23,0-2.34-0.27-3.33-0.8c-0.99-0.54-1.76-1.3-2.32-2.28c-0.56-0.98-0.84-2.12-0.84-3.4S498.82,205.32,499.38,204.35z
			 M509.77,205.1c-0.45-0.77-1.06-1.36-1.83-1.77c-0.77-0.41-1.63-0.62-2.56-0.62c-0.96,0-1.83,0.2-2.59,0.6
			c-0.77,0.4-1.37,0.98-1.81,1.74c-0.44,0.76-0.66,1.66-0.66,2.7c0,1.03,0.22,1.93,0.66,2.7c0.44,0.77,1.04,1.37,1.81,1.77
			c0.76,0.41,1.63,0.61,2.59,0.61c0.93,0,1.78-0.21,2.56-0.62c0.77-0.41,1.38-1,1.83-1.77c0.45-0.77,0.67-1.66,0.67-2.67
			C510.44,206.75,510.22,205.86,509.77,205.1z"/>
		<path class="st2" d="M526.57,202.65c1.03,0.93,1.55,2.27,1.55,4.04v7.36h-1.72v-7.18c0-1.37-0.37-2.41-1.11-3.13
			c-0.74-0.72-1.75-1.08-3.03-1.08c-1.31,0-2.36,0.38-3.14,1.15c-0.78,0.77-1.17,1.89-1.17,3.38v6.85h-1.75v-12.56h1.75v2.14
			c0.43-0.77,1.06-1.35,1.87-1.76c0.81-0.41,1.74-0.61,2.77-0.61C524.2,201.25,525.53,201.72,526.57,202.65z"/>
		<path class="st2" d="M532.03,204.35c0.57-0.97,1.34-1.73,2.33-2.25c0.99-0.53,2.11-0.79,3.36-0.79c1.2,0,2.28,0.27,3.24,0.81
			c0.96,0.54,1.67,1.23,2.12,2.09v-7.18h1.75v17.02h-1.75v-2.81c-0.42,0.87-1.1,1.59-2.05,2.15s-2.06,0.84-3.34,0.84
			c-1.25,0-2.37-0.27-3.36-0.8c-0.99-0.54-1.76-1.3-2.32-2.28c-0.56-0.98-0.84-2.12-0.84-3.4S531.46,205.32,532.03,204.35z
			 M542.41,205.1c-0.45-0.77-1.06-1.36-1.83-1.77c-0.77-0.41-1.63-0.62-2.56-0.62c-0.96,0-1.83,0.2-2.59,0.6
			c-0.77,0.4-1.37,0.98-1.81,1.74c-0.44,0.76-0.66,1.66-0.66,2.7c0,1.03,0.22,1.93,0.66,2.7c0.44,0.77,1.04,1.37,1.81,1.77
			c0.76,0.41,1.63,0.61,2.59,0.61c0.93,0,1.78-0.21,2.56-0.62c0.77-0.41,1.38-1,1.83-1.77c0.45-0.77,0.67-1.66,0.67-2.67
			C543.08,206.75,542.86,205.86,542.41,205.1z"/>
		<path class="st2" d="M555.99,201.75c0.75-1.25,1.77-2.22,3.07-2.92c1.3-0.7,2.75-1.05,4.34-1.05c1.95,0,3.61,0.42,5,1.28
			c1.39,0.85,2.4,2.05,3.03,3.6h-2.05c-0.5-1.09-1.26-1.94-2.28-2.55c-1.02-0.61-2.26-0.92-3.71-0.92c-1.28,0-2.43,0.28-3.46,0.83
			c-1.02,0.55-1.83,1.35-2.41,2.38c-0.58,1.04-0.87,2.24-0.87,3.6s0.29,2.56,0.87,3.59c0.58,1.03,1.38,1.82,2.41,2.37
			c1.02,0.55,2.17,0.83,3.46,0.83c1.45,0,2.68-0.3,3.71-0.91c1.02-0.61,1.78-1.44,2.28-2.52h2.05c-0.63,1.53-1.65,2.72-3.04,3.57
			c-1.4,0.84-3.06,1.26-4.99,1.26c-1.6,0-3.04-0.35-4.34-1.05c-1.3-0.7-2.32-1.67-3.07-2.91c-0.75-1.24-1.12-2.65-1.12-4.23
			S555.24,203,555.99,201.75z"/>
		<path class="st2" d="M577.41,213.43c-1.02-0.53-1.83-1.28-2.42-2.25c-0.59-0.97-0.89-2.11-0.89-3.42c0-1.3,0.3-2.44,0.9-3.42
			c0.6-0.97,1.41-1.73,2.45-2.25c1.03-0.53,2.19-0.79,3.47-0.79c1.28,0,2.44,0.26,3.48,0.79c1.04,0.53,1.86,1.28,2.45,2.25
			c0.59,0.97,0.89,2.11,0.89,3.42c0,1.29-0.3,2.42-0.9,3.4s-1.42,1.74-2.47,2.27s-2.21,0.79-3.49,0.79
			C579.58,214.23,578.43,213.96,577.41,213.43z M583.36,212.26c0.76-0.38,1.38-0.94,1.86-1.7c0.47-0.76,0.71-1.69,0.71-2.79
			c0-1.1-0.23-2.04-0.7-2.79c-0.47-0.76-1.08-1.33-1.85-1.7c-0.77-0.38-1.6-0.56-2.5-0.56s-1.73,0.19-2.5,0.56
			c-0.77,0.38-1.38,0.94-1.83,1.7c-0.46,0.76-0.69,1.69-0.69,2.79c0,1.1,0.23,2.04,0.69,2.79c0.46,0.76,1.06,1.33,1.82,1.7
			s1.58,0.56,2.48,0.56S582.6,212.64,583.36,212.26z"/>
		<path class="st2" d="M601.3,202.65c1.03,0.93,1.55,2.27,1.55,4.04v7.36h-1.72v-7.18c0-1.37-0.37-2.41-1.11-3.13
			c-0.74-0.72-1.75-1.08-3.03-1.08c-1.31,0-2.36,0.38-3.14,1.15c-0.78,0.77-1.17,1.89-1.17,3.38v6.85h-1.75v-12.56h1.75v2.14
			c0.43-0.77,1.06-1.35,1.87-1.76c0.81-0.41,1.74-0.61,2.77-0.61C598.94,201.25,600.27,201.72,601.3,202.65z"/>
		<path class="st2" d="M607.58,213.23c-0.99-0.67-1.54-1.58-1.66-2.73h1.8c0.08,0.71,0.45,1.28,1.09,1.71
			c0.64,0.44,1.5,0.66,2.58,0.66c0.95,0,1.69-0.21,2.23-0.62c0.54-0.41,0.81-0.93,0.81-1.54c0-0.43-0.15-0.78-0.45-1.06
			c-0.3-0.28-0.68-0.5-1.13-0.66c-0.46-0.16-1.08-0.33-1.86-0.52c-1.01-0.25-1.84-0.49-2.47-0.74s-1.17-0.61-1.61-1.09
			c-0.44-0.48-0.66-1.13-0.66-1.94c0-0.61,0.2-1.18,0.6-1.7s0.96-0.93,1.7-1.24c0.73-0.31,1.56-0.46,2.5-0.46
			c1.46,0,2.65,0.34,3.54,1.02c0.9,0.68,1.38,1.62,1.45,2.82h-1.75c-0.05-0.74-0.36-1.33-0.94-1.78s-1.36-0.68-2.36-0.68
			c-0.88,0-1.6,0.19-2.15,0.58c-0.55,0.38-0.82,0.86-0.82,1.43c0,0.49,0.16,0.89,0.49,1.21c0.33,0.31,0.73,0.56,1.21,0.74
			c0.48,0.18,1.13,0.37,1.95,0.59c0.98,0.25,1.76,0.48,2.35,0.71c0.58,0.23,1.08,0.57,1.5,1.01c0.42,0.45,0.63,1.04,0.65,1.77
			c0,0.67-0.2,1.28-0.6,1.81c-0.4,0.53-0.96,0.95-1.67,1.25s-1.54,0.46-2.47,0.46C609.85,214.23,608.57,213.89,607.58,213.23z"/>
		<path class="st2" d="M631.25,201.49v12.56h-1.75v-2.21c-0.4,0.78-1.01,1.38-1.85,1.79s-1.76,0.62-2.79,0.62
			c-1.63,0-2.96-0.46-3.99-1.39c-1.03-0.93-1.55-2.27-1.55-4.04v-7.34h1.72v7.15c0,1.37,0.37,2.41,1.11,3.13
			c0.74,0.72,1.75,1.08,3.03,1.08c1.31,0,2.36-0.38,3.14-1.15s1.17-1.89,1.17-3.38v-6.83H631.25z"/>
		<path class="st2" d="M636.99,197.02v17.02h-1.75v-17.02H636.99z"/>
		<path class="st2" d="M643.23,202.84v7.8c0,0.77,0.16,1.3,0.47,1.59c0.32,0.29,0.87,0.44,1.67,0.44h1.6v1.38h-1.87
			c-1.23,0-2.15-0.26-2.75-0.79c-0.6-0.53-0.9-1.4-0.9-2.61v-7.8h-1.9v-1.36h1.9v-3.15h1.77v3.15h3.74v1.36H643.23z"/>
		<path class="st2" d="M649.88,204.35c0.56-0.97,1.33-1.73,2.32-2.25c0.99-0.53,2.11-0.79,3.36-0.79c1.3,0,2.42,0.28,3.36,0.83
			c0.94,0.55,1.62,1.26,2.03,2.12v-2.76h1.75v12.56h-1.75v-2.78c-0.43,0.86-1.12,1.57-2.06,2.13c-0.94,0.56-2.06,0.84-3.36,0.84
			c-1.23,0-2.34-0.27-3.33-0.8c-0.99-0.54-1.76-1.3-2.32-2.28c-0.56-0.98-0.84-2.12-0.84-3.4S649.32,205.32,649.88,204.35z
			 M660.27,205.1c-0.45-0.77-1.06-1.36-1.83-1.77c-0.77-0.41-1.63-0.62-2.56-0.62c-0.96,0-1.83,0.2-2.59,0.6
			c-0.77,0.4-1.37,0.98-1.81,1.74c-0.44,0.76-0.66,1.66-0.66,2.7c0,1.03,0.22,1.93,0.66,2.7c0.44,0.77,1.04,1.37,1.81,1.77
			c0.76,0.41,1.63,0.61,2.59,0.61c0.93,0,1.78-0.21,2.56-0.62c0.77-0.41,1.38-1,1.83-1.77c0.45-0.77,0.67-1.66,0.67-2.67
			C660.94,206.75,660.72,205.86,660.27,205.1z"/>
		<path class="st2" d="M677.07,202.65c1.03,0.93,1.55,2.27,1.55,4.04v7.36h-1.72v-7.18c0-1.37-0.37-2.41-1.11-3.13
			c-0.74-0.72-1.75-1.08-3.03-1.08c-1.31,0-2.36,0.38-3.14,1.15c-0.78,0.77-1.17,1.89-1.17,3.38v6.85h-1.75v-12.56h1.75v2.14
			c0.43-0.77,1.06-1.35,1.87-1.76c0.81-0.41,1.74-0.61,2.77-0.61C674.7,201.25,676.03,201.72,677.07,202.65z"/>
		<path class="st2" d="M684.75,202.84v7.8c0,0.77,0.16,1.3,0.47,1.59c0.32,0.29,0.87,0.44,1.67,0.44h1.6v1.38h-1.87
			c-1.23,0-2.15-0.26-2.75-0.79c-0.6-0.53-0.9-1.4-0.9-2.61v-7.8h-1.9v-1.36h1.9v-3.15h1.77v3.15h3.74v1.36H684.75z"/>
	</g>
</g>
</svg>
