<?xml version="1.0" encoding="utf-8"?>
<!-- Generator: Adobe Illustrator 25.1.0, SVG Export Plug-In . SVG Version: 6.00 Build 0)  -->
<svg version="1.1" xmlns="http://www.w3.org/2000/svg" xmlns:xlink="http://www.w3.org/1999/xlink" x="0px" y="0px"
	 viewBox="0 0 960 360" style="enable-background:new 0 0 960 360;" xml:space="preserve">
<style type="text/css">
	.st0{fill:url(#SVGID_1_);}
	.st1{fill:#705987;}
	.st2{fill:#E6E6E6;}
	.st3{fill:#C4A1E2;}
	.st4{fill:#413449;}
	.st5{font-family:'Montserrat-SemiBold';}
	.st6{font-size:45px;}
	.st7{font-family:'Poppins-Light';}
	.st8{font-size:23px;}
</style>
<g id="Camada_1">
</g>
<g id="Camada_2">
	<g>
		<linearGradient id="SVGID_1_" gradientUnits="userSpaceOnUse" x1="481.1443" y1="379.4998" x2="478.8898" y2="-13.5445">
			<stop  offset="0" style="stop-color:#FB7E54;stop-opacity:0.8"/>
			<stop  offset="7.364154e-03" style="stop-color:#F87C55;stop-opacity:0.8"/>
			<stop  offset="0.1059" style="stop-color:#D16962;stop-opacity:0.8"/>
			<stop  offset="0.2116" style="stop-color:#B0596E;stop-opacity:0.8"/>
			<stop  offset="0.3244" style="stop-color:#954C77;stop-opacity:0.8"/>
			<stop  offset="0.4466" style="stop-color:#80427E;stop-opacity:0.8"/>
			<stop  offset="0.5832" style="stop-color:#713B83;stop-opacity:0.8"/>
			<stop  offset="0.7456" style="stop-color:#693686;stop-opacity:0.8"/>
			<stop  offset="1" style="stop-color:#663587;stop-opacity:0.8"/>
		</linearGradient>
		<rect x="0" class="st0" width="960" height="360"/>
	</g>
</g>
<g id="Camada_4">
	<path class="st1" d="M960,323.5V360H651.08v-36.45c0,0,44.92-0.55,88.61-0.01c15.84,0.19,25.7-2.95,31.83-7.04
		c10.79-7.17,10.05-17.26,10.05-17.26h37.78c0.97,7.6,5.31,12.83,10.98,16.42c13.92,8.84,35.89,7.84,35.89,7.84
		S906.21,323.5,960,323.5z"/>
	<g>
		<path class="st2" d="M537.89,62.43c0,0.57-0.5,1.03-1.13,1.03c-0.62,0-1.13-0.46-1.13-1.03c0-0.56,0.5-1.02,1.13-1.02
			C537.38,61.4,537.89,61.86,537.89,62.43z"/>
		<path class="st2" d="M326.71,9.57c0,0.57-0.5,1.02-1.13,1.02c-0.62,0-1.13-0.46-1.13-1.02c0-0.57,0.5-1.03,1.13-1.03
			C326.21,8.55,326.71,9.01,326.71,9.57z"/>
		<path class="st2" d="M877.71,9.94c0,1.42-1.26,2.57-2.82,2.57c-1.56,0-2.82-1.15-2.82-2.57c0-1.42,1.26-2.57,2.82-2.57
			C876.45,7.37,877.71,8.52,877.71,9.94z"/>
		<ellipse class="st2" cx="165.08" cy="61.4" rx="2.82" ry="2.57"/>
		<path class="st2" d="M21.69,45.8c0,1.42-1.26,2.57-2.82,2.57c-1.56,0-2.82-1.15-2.82-2.57c0-1.42,1.26-2.57,2.82-2.57
			C20.43,43.23,21.69,44.38,21.69,45.8z"/>
		<path class="st2" d="M374.95,33.04c0,1.42-1.26,2.57-2.82,2.57s-2.82-1.15-2.82-2.57c0-1.42,1.26-2.57,2.82-2.57
			S374.95,31.62,374.95,33.04z"/>
		<path class="st2" d="M906,147.04c0,0.57-0.5,1.03-1.13,1.03c-0.62,0-1.13-0.46-1.13-1.03c0-0.56,0.5-1.02,1.13-1.02
			C905.5,146.02,906,146.48,906,147.04z"/>
		<path class="st2" d="M754.24,78.13c0,0.57-0.5,1.03-1.13,1.03s-1.13-0.46-1.13-1.03c0-0.57,0.5-1.02,1.13-1.02
			S754.24,77.57,754.24,78.13z"/>
		<path class="st2" d="M548.83,21.82c0,0.56-0.5,1.02-1.13,1.02c-0.62,0-1.13-0.46-1.13-1.02c0-0.57,0.5-1.03,1.13-1.03
			C548.33,20.79,548.83,21.25,548.83,21.82z"/>
		<path class="st2" d="M24.7,156.64c0,1.42-1.26,2.57-2.82,2.57c-1.56,0-2.82-1.15-2.82-2.57c0-1.42,1.26-2.57,2.82-2.57
			C23.44,154.07,24.7,155.22,24.7,156.64z"/>
		<path class="st2" d="M375.03,74.8c0,1.42-1.26,2.57-2.82,2.57s-2.82-1.15-2.82-2.57s1.26-2.57,2.82-2.57S375.03,73.38,375.03,74.8
			z"/>
		<path class="st2" d="M168.97,123.79c0,0.56-0.5,1.02-1.13,1.02c-0.62,0-1.13-0.46-1.13-1.02c0-0.57,0.5-1.03,1.13-1.03
			C168.47,122.76,168.97,123.22,168.97,123.79z"/>
		<path class="st2" d="M773.65,18.62c0,1.42-1.26,2.57-2.82,2.57c-1.56,0-2.82-1.15-2.82-2.57c0-1.42,1.26-2.57,2.82-2.57
			C772.39,16.05,773.65,17.2,773.65,18.62z"/>
		<path class="st2" d="M710.82,81.72c0,1.42-1.26,2.57-2.82,2.57c-1.56,0-2.82-1.15-2.82-2.57c0-1.42,1.27-2.57,2.82-2.57
			C709.56,79.15,710.82,80.3,710.82,81.72z"/>
		<path class="st2" d="M568.33,37.22c0,0.57-0.5,1.03-1.12,1.03c-0.62,0-1.13-0.46-1.13-1.03c0-0.57,0.5-1.02,1.13-1.02
			C567.83,36.2,568.33,36.66,568.33,37.22z"/>
		<path class="st2" d="M660.14,133.19c0,0.57-0.5,1.02-1.12,1.02c-0.62,0-1.13-0.46-1.13-1.02c0-0.57,0.5-1.03,1.13-1.03
			C659.64,132.17,660.14,132.62,660.14,133.19z"/>
		<path class="st2" d="M945.5,54.29c0,0.57-0.5,1.02-1.13,1.02c-0.62,0-1.13-0.46-1.13-1.02c0-0.57,0.5-1.03,1.13-1.03
			C944.99,53.26,945.5,53.72,945.5,54.29z"/>
		<path class="st2" d="M53.6,147.61c0,0.57-0.5,1.03-1.12,1.03c-0.62,0-1.13-0.46-1.13-1.03c0-0.57,0.5-1.02,1.13-1.02
			C53.1,146.58,53.6,147.04,53.6,147.61z"/>
		<path class="st2" d="M633.1,82.35c0,1.42-1.26,2.57-2.82,2.57c-1.56,0-2.82-1.15-2.82-2.57c0-1.42,1.26-2.57,2.82-2.57
			C631.84,79.78,633.1,80.93,633.1,82.35z"/>
		<path class="st2" d="M870.14,54.29c0,1.42-1.26,2.57-2.82,2.57c-1.56,0-2.82-1.15-2.82-2.57c0-1.42,1.26-2.57,2.82-2.57
			C868.88,51.71,870.14,52.87,870.14,54.29z"/>
		<ellipse class="st2" cx="924.36" cy="97.43" rx="2.82" ry="2.57"/>
		<path class="st2" d="M886.28,136.56c0,1.42-1.26,2.57-2.82,2.57c-1.56,0-2.82-1.15-2.82-2.57s1.26-2.57,2.82-2.57
			C885.02,133.99,886.28,135.14,886.28,136.56z"/>
		<path class="st2" d="M713.11,69.8c0,0.57-0.5,1.03-1.12,1.03c-0.62,0-1.13-0.46-1.13-1.03c0-0.57,0.5-1.02,1.13-1.02
			C712.6,68.78,713.11,69.24,713.11,69.8z"/>
		<path class="st2" d="M613.41,117.64c0,0.57-0.5,1.03-1.12,1.03s-1.13-0.46-1.13-1.03c0-0.57,0.5-1.02,1.13-1.02
			S613.41,117.07,613.41,117.64z"/>
		<path class="st2" d="M836.94,13.85c0,1.42-1.26,2.57-2.82,2.57c-1.56,0-2.82-1.15-2.82-2.57s1.26-2.57,2.82-2.57
			C835.68,11.28,836.94,12.43,836.94,13.85z"/>
		<path class="st2" d="M444.04,33.17c0,1.42-1.26,2.57-2.82,2.57s-2.82-1.15-2.82-2.57c0-1.42,1.26-2.57,2.82-2.57
			S444.04,31.75,444.04,33.17z"/>
		<path class="st2" d="M802.31,15c0,1.42-1.26,2.57-2.82,2.57s-2.82-1.15-2.82-2.57c0-1.42,1.26-2.57,2.82-2.57
			S802.31,13.58,802.31,15z"/>
		<ellipse class="st2" cx="250.95" cy="64.13" rx="2.82" ry="2.57"/>
		<path class="st2" d="M808.37,116.62c0,1.42-1.26,2.57-2.82,2.57c-1.56,0-2.82-1.15-2.82-2.57c0-1.42,1.26-2.57,2.82-2.57
			C807.11,114.05,808.37,115.2,808.37,116.62z"/>
		<path class="st2" d="M624.76,65.11c0,0.57-0.5,1.02-1.12,1.02c-0.62,0-1.13-0.46-1.13-1.02c0-0.57,0.5-1.03,1.13-1.03
			C624.25,64.08,624.76,64.54,624.76,65.11z"/>
		<path class="st2" d="M929.46,85.51c0,0.57-0.5,1.03-1.12,1.03c-0.62,0-1.13-0.46-1.13-1.03c0-0.56,0.5-1.02,1.13-1.02
			C928.96,84.48,929.46,84.94,929.46,85.51z"/>
		<path class="st2" d="M829.77,133.34c0,0.57-0.5,1.03-1.12,1.03c-0.62,0-1.13-0.46-1.13-1.03c0-0.56,0.5-1.02,1.13-1.02
			C829.27,132.32,829.77,132.78,829.77,133.34z"/>
		<path class="st2" d="M496.54,21.48c0,1.42-1.26,2.57-2.82,2.57c-1.56,0-2.82-1.15-2.82-2.57c0-1.42,1.26-2.57,2.82-2.57
			C495.28,18.91,496.54,20.06,496.54,21.48z"/>
		<path class="st2" d="M739.63,87.8c0,1.42-0.95,2.85-2.51,2.85s-2.82-1.15-2.82-2.57c0-1.42,1.26-2.57,2.82-2.57
			S739.63,86.38,739.63,87.8z"/>
		<path class="st2" d="M668.96,14.63c0,1.42-1.26,2.57-2.82,2.57c-1.56,0-2.82-1.15-2.82-2.57c0-1.42,1.26-2.57,2.82-2.57
			C667.7,12.06,668.96,13.21,668.96,14.63z"/>
	</g>
	<g>
		<path class="st3" d="M-675.21-1079.15c0,1.23-1,2.23-2.24,2.23s-2.24-1-2.24-2.23s1-2.23,2.24-2.23
			S-675.21-1080.39-675.21-1079.15z"/>
		<path class="st3" d="M-642.99-1006.29c0,1.23-1,2.23-2.24,2.23c-1.24,0-2.24-1-2.24-2.23c0-1.23,1-2.23,2.24-2.23
			C-643.99-1008.52-642.99-1007.52-642.99-1006.29z"/>
		<path class="st3" d="M-806.45-1106.12c0,1.23-1,2.23-2.24,2.23c-1.24,0-2.24-1-2.24-2.23c0-1.23,1-2.23,2.24-2.23
			C-807.45-1108.35-806.45-1107.35-806.45-1106.12z"/>
		<path class="st3" d="M-579.37-1029.15c0,0.49-0.4,0.89-0.89,0.89c-0.49,0-0.89-0.4-0.89-0.89c0-0.49,0.4-0.89,0.89-0.89
			C-579.78-1030.03-579.37-1029.64-579.37-1029.15z"/>
		<path class="st3" d="M-286.15-1047.7c0,0.49-0.4,0.89-0.89,0.89c-0.49,0-0.89-0.4-0.89-0.89c0-0.49,0.4-0.89,0.89-0.89
			C-286.55-1048.59-286.15-1048.19-286.15-1047.7z"/>
		<path class="st3" d="M-658.52-987.71c0,0.49-0.4,0.89-0.89,0.89c-0.49,0-0.89-0.4-0.89-0.89c0-0.49,0.4-0.89,0.89-0.89
			C-658.92-988.6-658.52-988.2-658.52-987.71z"/>
		<path class="st3" d="M-1038.9-992.77c0,0.49-0.4,0.89-0.89,0.89c-0.49,0-0.89-0.4-0.89-0.89c0-0.49,0.4-0.89,0.89-0.89
			C-1039.3-993.65-1038.9-993.26-1038.9-992.77z"/>
		<path class="st3" d="M-506.56-975.4c0,0.49-0.4,0.89-0.89,0.89c-0.49,0-0.89-0.4-0.89-0.89c0-0.49,0.4-0.89,0.89-0.89
			C-506.96-976.29-506.56-975.89-506.56-975.4z"/>
		<path class="st3" d="M-362.1-1038.99c0,0.49-0.4,0.89-0.89,0.89c-0.49,0-0.89-0.4-0.89-0.89c0-0.49,0.4-0.89,0.89-0.89
			C-362.5-1039.88-362.1-1039.48-362.1-1038.99z"/>
		<path class="st3" d="M-648.25-866.23c0,0.49-0.4,0.89-0.89,0.89c-0.49,0-0.89-0.4-0.89-0.89c0-0.49,0.4-0.89,0.89-0.89
			C-648.66-867.12-648.25-866.72-648.25-866.23z"/>
		<path class="st3" d="M-815.9-912.01c0,0.49-0.4,0.89-0.89,0.89c-0.49,0-0.89-0.4-0.89-0.89c0-0.49,0.4-0.89,0.89-0.89
			C-816.31-912.9-815.9-912.5-815.9-912.01z"/>
		<path class="st3" d="M-481.06-1077.61c0,1.23-1,2.23-2.24,2.23c-1.24,0-2.24-1-2.24-2.23s1-2.23,2.24-2.23
			C-482.06-1079.84-481.06-1078.84-481.06-1077.61z"/>
		<path class="st3" d="M-279-961.58c0,1.23-1,2.23-2.24,2.23s-2.24-1-2.24-2.23c0-1.23,1-2.23,2.24-2.23S-279-962.81-279-961.58z"/>
		<path class="st3" d="M-378.47-911.69c0,1.23-1,2.23-2.24,2.23c-1.24,0-2.24-1-2.24-2.23c0-1.23,1-2.23,2.24-2.23
			C-379.47-913.92-378.47-912.92-378.47-911.69z"/>
		<path class="st3" d="M-927.65-1077.61c0,1.23-1,2.23-2.24,2.23c-1.24,0-2.24-1-2.24-2.23s1-2.23,2.24-2.23
			C-928.65-1079.84-927.65-1078.84-927.65-1077.61z"/>
		<ellipse class="st3" cx="-944.22" cy="-867.12" rx="2.24" ry="2.23"/>
		<path class="st3" d="M-1117.84-1043.36c0,1.23-1,2.23-2.24,2.23c-1.24,0-2.24-1-2.24-2.23c0-1.23,1-2.23,2.24-2.23
			C-1118.84-1045.59-1117.84-1044.59-1117.84-1043.36z"/>
		<ellipse class="st3" cx="-746.72" cy="-1026.92" rx="2.24" ry="2.23"/>
		<path class="st3" d="M-508.55-1076.62c0,1.23-1,2.23-2.24,2.23s-2.24-1-2.24-2.23c0-1.23,1-2.23,2.24-2.23
			S-508.55-1077.85-508.55-1076.62z"/>
		<path class="st3" d="M-677.63-968.76c0,1.23-1,2.23-2.24,2.23c-1.24,0-2.24-1-2.24-2.23c0-1.23,1-2.23,2.24-2.23
			C-678.63-970.99-677.63-969.99-677.63-968.76z"/>
		<path class="st3" d="M-1058.06-880.64c0,1.23-1,2.23-2.24,2.23c-1.24,0-2.24-1-2.24-2.23c0-1.23,1-2.23,2.24-2.23
			C-1059.06-882.86-1058.06-881.87-1058.06-880.64z"/>
		<path class="st3" d="M-566.38-975.4c0,1.23-1,2.23-2.24,2.23c-1.24,0-2.24-1-2.24-2.23c0-1.23,1-2.23,2.24-2.23
			C-567.38-977.63-566.38-976.63-566.38-975.4z"/>
		<path class="st3" d="M-515.64-984.6c0,1.23-1,2.23-2.24,2.23s-2.24-1-2.24-2.23c0-1.23,1-2.23,2.24-2.23
			S-515.64-985.83-515.64-984.6z"/>
		<path class="st3" d="M-777.61-891.69c0,1.23-1,2.23-2.24,2.23s-2.24-1-2.24-2.23c0-1.23,1-2.23,2.24-2.23
			S-777.61-892.92-777.61-891.69z"/>
		<path class="st3" d="M-634.68-1092.52c0,1.23-1,2.23-2.24,2.23c-1.24,0-2.24-1-2.24-2.23c0-1.23,1-2.23,2.24-2.23
			C-635.68-1094.74-634.68-1093.75-634.68-1092.52z"/>
		<path class="st3" d="M-649.51-1033.21c0,0.49-0.4,0.89-0.89,0.89c-0.49,0-0.89-0.4-0.89-0.89c0-0.49,0.4-0.89,0.89-0.89
			C-649.91-1034.1-649.51-1033.7-649.51-1033.21z"/>
		<path class="st3" d="M-407.61-1015.54c0,0.49-0.4,0.89-0.89,0.89c-0.49,0-0.89-0.4-0.89-0.89c0-0.49,0.4-0.89,0.89-0.89
			C-408.01-1016.43-407.61-1016.03-407.61-1015.54z"/>
		<path class="st3" d="M-1041.38-953.91c0,0.49-0.4,0.89-0.89,0.89c-0.49,0-0.89-0.4-0.89-0.89c0-0.49,0.4-0.89,0.89-0.89
			C-1041.78-954.79-1041.38-954.4-1041.38-953.91z"/>
		<path class="st3" d="M-486.76-974.11c0,0.49-0.4,0.89-0.89,0.89c-0.49,0-0.89-0.4-0.89-0.89c0-0.49,0.4-0.89,0.89-0.89
			C-487.15-975-486.76-974.6-486.76-974.11z"/>
		<path class="st3" d="M-867.14-979.16c0,0.49-0.4,0.89-0.89,0.89c-0.49,0-0.89-0.4-0.89-0.89c0-0.49,0.4-0.89,0.89-0.89
			C-867.54-980.05-867.14-979.65-867.14-979.16z"/>
		<path class="st3" d="M-1117.34-945.19c0,0.49-0.4,0.89-0.89,0.89c-0.49,0-0.89-0.4-0.89-0.89c0-0.49,0.4-0.89,0.89-0.89
			C-1117.74-946.08-1117.34-945.68-1117.34-945.19z"/>
		<path class="st3" d="M-476.49-852.63c0,0.49-0.4,0.89-0.89,0.89s-0.89-0.4-0.89-0.89c0-0.49,0.4-0.89,0.89-0.89
			S-476.49-853.12-476.49-852.63z"/>
		<path class="st3" d="M-644.14-898.41c0,0.49-0.4,0.89-0.89,0.89c-0.49,0-0.89-0.4-0.89-0.89c0-0.49,0.4-0.89,0.89-0.89
			C-644.54-899.3-644.14-898.9-644.14-898.41z"/>
		<path class="st3" d="M-309.3-1064.01c0,1.23-1,2.23-2.24,2.23c-1.24,0-2.24-1-2.24-2.23c0-1.23,1-2.23,2.24-2.23
			C-310.3-1066.23-309.3-1065.23-309.3-1064.01z"/>
		<path class="st3" d="M-1034.24-867.78c0,1.23-1,2.23-2.24,2.23c-1.24,0-2.24-1-2.24-2.23c0-1.23,1-2.23,2.24-2.23
			C-1035.24-870.01-1034.24-869.01-1034.24-867.78z"/>
		<path class="st3" d="M-1058.12-970.89c0,1.23-1,2.23-2.24,2.23c-1.24,0-2.24-1-2.24-2.23s1-2.23,2.24-2.23
			C-1059.12-973.12-1058.12-972.12-1058.12-970.89z"/>
		<path class="st3" d="M-755.88-1064.01c0,1.23-1,2.23-2.24,2.23c-1.24,0-2.24-1-2.24-2.23c0-1.23,1-2.23,2.24-2.23
			C-756.89-1066.23-755.88-1065.23-755.88-1064.01z"/>
		<path class="st3" d="M-770.22-853.52c0,1.23-1,2.23-2.24,2.23c-1.24,0-2.24-1-2.24-2.23c0-1.23,1-2.23,2.24-2.23
			C-771.22-855.74-770.22-854.75-770.22-853.52z"/>
		<ellipse class="st3" cx="-574.95" cy="-1013.32" rx="2.24" ry="2.23"/>
		<path class="st3" d="M-336.79-1063.01c0,1.23-1,2.23-2.24,2.23c-1.24,0-2.24-1-2.24-2.23c0-1.23,1-2.23,2.24-2.23
			C-337.79-1065.24-336.79-1064.24-336.79-1063.01z"/>
		<path class="st3" d="M-510.44-959.15c0,1.23-1,2.23-2.24,2.23c-1.24,0-2.24-1-2.24-2.23c0-1.23,1-2.23,2.24-2.23
			C-511.44-961.38-510.44-960.39-510.44-959.15z"/>
		<path class="st3" d="M-343.88-970.99c0,1.23-1,2.23-2.24,2.23s-2.24-1-2.24-2.23c0-1.23,1-2.23,2.24-2.23
			S-343.88-972.22-343.88-970.99z"/>
		<ellipse class="st3" cx="-603.51" cy="-937" rx="2.24" ry="2.23"/>
		<path class="st3" d="M-1046.54-1134.11c0,0.49-0.4,0.89-0.89,0.89s-0.89-0.4-0.89-0.89c0-0.49,0.4-0.89,0.89-0.89
			S-1046.54-1134.6-1046.54-1134.11z"/>
		<path class="st3" d="M-691.05-959.96c0,0.49-0.4,0.89-0.89,0.89c-0.49,0-0.89-0.4-0.89-0.89c0-0.49,0.4-0.89,0.89-0.89
			C-691.45-960.85-691.05-960.45-691.05-959.96z"/>
		<path class="st3" d="M-883.78-1075.01c0,0.49-0.4,0.89-0.89,0.89c-0.49,0-0.89-0.4-0.89-0.89c0-0.49,0.4-0.89,0.89-0.89
			C-884.18-1075.9-883.78-1075.5-883.78-1075.01z"/>
		<path class="st3" d="M-873.52-953.53c0,0.49-0.4,0.89-0.89,0.89c-0.49,0-0.89-0.4-0.89-0.89c0-0.49,0.4-0.89,0.89-0.89
			C-873.92-954.42-873.52-954.02-873.52-953.53z"/>
		<path class="st3" d="M-1041.17-999.31c0,0.49-0.4,0.89-0.89,0.89c-0.49,0-0.89-0.4-0.89-0.89c0-0.49,0.4-0.89,0.89-0.89
			C-1041.57-1000.2-1041.17-999.8-1041.17-999.31z"/>
		<path class="st3" d="M-592.74-1010.42c0,1.23-1,2.23-2.24,2.23s-2.24-1-2.24-2.23c0-1.23,1-2.23,2.24-2.23
			S-592.74-1011.65-592.74-1010.42z"/>
		<path class="st3" d="M-969.74-1114.22c0,1.23-1,2.23-2.24,2.23c-1.24,0-2.24-1-2.24-2.23c0-1.23,1-2.23,2.24-2.23
			C-970.74-1116.44-969.74-1115.45-969.74-1114.22z"/>
		<path class="st3" d="M-620.23-1009.43c0,1.23-1,2.23-2.24,2.23c-1.24,0-2.24-1-2.24-2.23c0-1.23,1-2.23,2.24-2.23
			C-621.23-1011.66-620.23-1010.66-620.23-1009.43z"/>
		<path class="st3" d="M-907.47-1060.06c0,1.23-1,2.23-2.24,2.23c-1.24,0-2.24-1-2.24-2.23c0-1.23,1-2.23,2.24-2.23
			C-908.47-1062.28-907.47-1061.29-907.47-1060.06z"/>
		<path class="st3" d="M-740.9-1071.89c0,1.23-1,2.23-2.24,2.23s-2.24-1-2.24-2.23s1-2.23,2.24-2.23S-740.9-1073.12-740.9-1071.89z"
			/>
		<path class="st3" d="M-996.46-982.98c0,1.23-1,2.23-2.24,2.23c-1.24,0-2.24-1-2.24-2.23c0-1.23,1-2.23,2.24-2.23
			C-997.46-985.21-996.46-984.21-996.46-982.98z"/>
		<path class="st3" d="M-874.77-1120.51c0,0.49-0.4,0.89-0.89,0.89s-0.89-0.4-0.89-0.89c0-0.49,0.4-0.89,0.89-0.89
			S-874.77-1121-874.77-1120.51z"/>
		<path class="st3" d="M-632.87-1102.84c0,0.49-0.4,0.89-0.89,0.89c-0.49,0-0.89-0.4-0.89-0.89c0-0.49,0.4-0.89,0.89-0.89
			C-633.27-1103.73-632.87-1103.33-632.87-1102.84z"/>
		<path class="st3" d="M-712.02-1061.41c0,0.49-0.4,0.89-0.89,0.89c-0.49,0-0.89-0.4-0.89-0.89c0-0.49,0.4-0.89,0.89-0.89
			C-712.42-1062.29-712.02-1061.9-712.02-1061.41z"/>
		<path class="st3" d="M-701.75-939.93c0,0.49-0.4,0.89-0.89,0.89c-0.49,0-0.89-0.4-0.89-0.89c0-0.49,0.4-0.89,0.89-0.89
			C-702.15-940.81-701.75-940.42-701.75-939.93z"/>
		<path class="st3" d="M-869.4-985.7c0,0.49-0.4,0.89-0.89,0.89c-0.49,0-0.89-0.4-0.89-0.89c0-0.49,0.4-0.89,0.89-0.89
			C-869.8-986.59-869.4-986.2-869.4-985.7z"/>
		<path class="st3" d="M-995.48-940.81c0,1.23-1,2.23-2.24,2.23s-2.24-1-2.24-2.23c0-1.23,1-2.23,2.24-2.23
			S-995.48-942.04-995.48-940.81z"/>
		<path class="st3" d="M-797.97-1100.61c0,1.23-1,2.23-2.24,2.23c-1.24,0-2.24-1-2.24-2.23c0-1.23,1-2.23,2.24-2.23
			C-798.97-1102.84-797.97-1101.84-797.97-1100.61z"/>
		<path class="st3" d="M-735.7-1046.45c0,1.23-1,2.23-2.24,2.23c-1.24,0-2.24-1-2.24-2.23s1-2.23,2.24-2.23
			C-736.7-1048.68-735.7-1047.68-735.7-1046.45z"/>
		<path class="st3" d="M-824.7-969.38c0,1.23-1,2.23-2.24,2.23c-1.24,0-2.24-1-2.24-2.23c0-1.23,1-2.23,2.24-2.23
			C-825.7-971.6-824.7-970.61-824.7-969.38z"/>
		<path class="st3" d="M-314.32-1129.09c0,1.23-1,2.23-2.24,2.23c-1.24,0-2.24-1-2.24-2.23c0-1.23,1-2.23,2.24-2.23
			C-315.32-1131.32-314.32-1130.32-314.32-1129.09z"/>
		<path class="st3" d="M-703.21-1010.74c0,1.23-1,2.23-2.24,2.23s-2.24-1-2.24-2.23c0-1.23,1-2.23,2.24-2.23
			S-703.21-1011.97-703.21-1010.74z"/>
		<path class="st3" d="M-461.08-904.17c0,1.23-1,2.23-2.24,2.23c-1.24,0-2.24-1-2.24-2.23c0-1.23,1-2.23,2.24-2.23
			C-462.08-906.4-461.08-905.4-461.08-904.17z"/>
		<path class="st3" d="M-510.96-849.52c0,1.23-1,2.23-2.24,2.23c-1.24,0-2.24-1-2.24-2.23c0-1.23,1-2.23,2.24-2.23
			C-511.96-851.75-510.96-850.75-510.96-849.52z"/>
		<path class="st3" d="M-625.91-881.07c0,0.49-0.4,0.89-0.89,0.89c-0.49,0-0.89-0.4-0.89-0.89s0.4-0.89,0.89-0.89
			C-626.32-881.96-625.91-881.56-625.91-881.07z"/>
		<path class="st3" d="M-525.79-790.22c0,0.49-0.4,0.89-0.89,0.89c-0.49,0-0.89-0.4-0.89-0.89c0-0.49,0.4-0.89,0.89-0.89
			C-526.19-791.11-525.79-790.71-525.79-790.22z"/>
		<path class="st3" d="M-324.65-873.29c0,0.49-0.4,0.89-0.89,0.89c-0.49,0-0.89-0.4-0.89-0.89c0-0.49,0.4-0.89,0.89-0.89
			C-325.05-874.17-324.65-873.78-324.65-873.29z"/>
		<path class="st3" d="M-589.98-1009.99c0,0.49-0.4,0.89-0.89,0.89c-0.49,0-0.89-0.4-0.89-0.89c0-0.49,0.4-0.89,0.89-0.89
			C-590.38-1010.87-589.98-1010.48-589.98-1009.99z"/>
		<path class="st3" d="M-632.16-821.01c0,1.23-1,2.23-2.24,2.23c-1.24,0-2.24-1-2.24-2.23c0-1.23,1-2.23,2.24-2.23
			C-633.16-823.24-632.16-822.24-632.16-821.01z"/>
		<path class="st3" d="M-384.48-873.29c0,1.23-1,2.23-2.24,2.23c-1.24,0-2.24-1-2.24-2.23c0-1.23,1-2.23,2.24-2.23
			C-385.48-875.51-384.48-874.52-384.48-873.29z"/>
		<path class="st3" d="M-712.92-1039.43c0,1.23-1,2.23-2.24,2.23c-1.24,0-2.24-1-2.24-2.23c0-1.23,1-2.23,2.24-2.23
			C-713.92-1041.66-712.92-1040.67-712.92-1039.43z"/>
		<ellipse class="st3" cx="-341.43" cy="-835.92" rx="2.24" ry="2.23"/>
		<path class="st3" d="M-585.86-1042.16c0,0.49-0.4,0.89-0.89,0.89c-0.49,0-0.89-0.4-0.89-0.89c0-0.49,0.4-0.89,0.89-0.89
			C-586.26-1043.05-585.86-1042.65-585.86-1042.16z"/>
		<path class="st3" d="M-455.82-786.44c0,1.23-1,2.23-2.24,2.23c-1.24,0-2.24-1-2.24-2.23c0-1.23,1-2.23,2.24-2.23
			C-456.82-788.66-455.82-787.67-455.82-786.44z"/>
		<path class="st3" d="M-541.16-1025.83c0,1.23-1,2.23-2.24,2.23c-1.24,0-2.24-1-2.24-2.23c0-1.23,1-2.23,2.24-2.23
			C-542.16-1028.06-541.16-1027.06-541.16-1025.83z"/>
		<path class="st3" d="M-509.15-859.85c0,0.49-0.4,0.89-0.89,0.89c-0.49,0-0.89-0.4-0.89-0.89c0-0.49,0.4-0.89,0.89-0.89
			C-509.55-860.73-509.15-860.34-509.15-859.85z"/>
		<path class="st3" d="M-588.29-818.41c0,0.49-0.4,0.89-0.89,0.89c-0.49,0-0.89-0.4-0.89-0.89c0-0.49,0.4-0.89,0.89-0.89
			C-588.69-819.3-588.29-818.9-588.29-818.41z"/>
		<path class="st3" d="M-410.83-908.31c0,1.23-1,2.23-2.24,2.23c-1.24,0-2.24-1-2.24-2.23c0-1.23,1-2.23,2.24-2.23
			C-411.84-910.54-410.83-909.54-410.83-908.31z"/>
		<path class="st3" d="M-674.25-857.62c0,1.23-1,2.23-2.24,2.23s-2.24-1-2.24-2.23c0-1.23,1-2.23,2.24-2.23
			S-674.25-858.85-674.25-857.62z"/>
		<path class="st3" d="M-438.32-907.32c0,1.23-1,2.23-2.24,2.23s-2.24-1-2.24-2.23c0-1.23,1-2.23,2.24-2.23
			S-438.32-908.55-438.32-907.32z"/>
		<ellipse class="st3" cx="-738.71" cy="-795.47" rx="2.24" ry="2.23"/>
		<path class="st3" d="M-433.52-819.29c0,1.23-1,2.23-2.24,2.23c-1.24,0-2.24-1-2.24-2.23c0-1.23,1-2.23,2.24-2.23
			C-434.52-821.52-433.52-820.52-433.52-819.29z"/>
		<path class="st3" d="M-564.45-923.22c0,1.23-1,2.23-2.24,2.23c-1.24,0-2.24-1-2.24-2.23c0-1.23,1-2.23,2.24-2.23
			C-565.46-925.45-564.45-924.45-564.45-923.22z"/>
		<path class="st3" d="M-579.29-863.91c0,0.49-0.4,0.89-0.89,0.89c-0.49,0-0.89-0.4-0.89-0.89c0-0.49,0.4-0.89,0.89-0.89
			C-579.69-864.8-579.29-864.4-579.29-863.91z"/>
		<path class="st3" d="M-337.38-846.24c0,0.49-0.4,0.89-0.89,0.89c-0.49,0-0.89-0.4-0.89-0.89c0-0.49,0.4-0.89,0.89-0.89
			C-337.78-847.13-337.38-846.73-337.38-846.24z"/>
		<path class="st3" d="M-416.53-804.81c0,0.49-0.4,0.89-0.89,0.89c-0.49,0-0.89-0.4-0.89-0.89c0-0.49,0.4-0.89,0.89-0.89
			C-416.93-805.7-416.53-805.3-416.53-804.81z"/>
		<path class="st3" d="M-685.66-894.7c0,1.23-1,2.23-2.24,2.23c-1.24,0-2.24-1-2.24-2.23c0-1.23,1-2.23,2.24-2.23
			C-686.66-896.93-685.66-895.93-685.66-894.7z"/>
		<path class="st3" d="M-502.48-844.02c0,1.23-1,2.23-2.24,2.23c-1.24,0-2.24-1-2.24-2.23c0-1.23,1-2.23,2.24-2.23
			C-503.49-846.24-502.48-845.25-502.48-844.02z"/>
		<path class="st3" d="M-544.19-907.63c0,1.23-1,2.23-2.24,2.23c-1.24,0-2.24-1-2.24-2.23c0-1.23,1-2.23,2.24-2.23
			C-545.2-909.86-544.19-908.86-544.19-907.63z"/>
		<path class="st3" d="M-1047.11-1095.03c0,1.23-1,2.23-2.24,2.23c-1.24,0-2.24-1-2.24-2.23s1-2.23,2.24-2.23
			C-1048.11-1097.26-1047.11-1096.26-1047.11-1095.03z"/>
		<path class="st3" d="M-1133.52-1126.86c0,1.23-1,2.23-2.24,2.23c-1.24,0-2.24-1-2.24-2.23c0-1.23,1-2.23,2.24-2.23
			C-1134.52-1129.09-1133.52-1128.09-1133.52-1126.86z"/>
	</g>
	<g>
		<path class="st3" d="M477.1,78.23c0,0.49-0.4,0.89-0.89,0.89c-0.49,0-0.89-0.4-0.89-0.89c0-0.49,0.4-0.89,0.89-0.89
			C476.7,77.35,477.1,77.74,477.1,78.23z"/>
		<path class="st3" d="M717.1,141.99c0,0.49-0.4,0.89-0.89,0.89c-0.49,0-0.89-0.4-0.89-0.89c0-0.49,0.4-0.89,0.89-0.89
			C716.69,141.1,717.1,141.5,717.1,141.99z"/>
		<path class="st3" d="M796.35,14.39c0,1.23-1,2.23-2.24,2.23c-1.24,0-2.24-1-2.24-2.23s1-2.23,2.24-2.23
			C795.35,12.16,796.35,13.16,796.35,14.39z"/>
		<ellipse class="st3" cx="592.78" cy="113.88" rx="2.24" ry="2.23"/>
		<path class="st3" d="M606.16,48.64c0,1.23-1,2.23-2.24,2.23c-1.24,0-2.24-1-2.24-2.23c0-1.23,1-2.23,2.24-2.23
			C605.16,46.41,606.16,47.41,606.16,48.64z"/>
		<path class="st3" d="M439.94,126.36c0,1.23-1,2.23-2.24,2.23c-1.24,0-2.24-1-2.24-2.23c0-1.23,1-2.23,2.24-2.23
			C438.94,124.14,439.94,125.13,439.94,126.36z"/>
		<path class="st3" d="M946.39,200.31c0,1.23-1,2.23-2.24,2.23s-2.24-1-2.24-2.23c0-1.23,1-2.23,2.24-2.23
			S946.39,199.08,946.39,200.31z"/>
		<path class="st3" d="M474.62,117.09c0,0.49-0.4,0.89-0.89,0.89c-0.49,0-0.89-0.4-0.89-0.89c0-0.49,0.4-0.89,0.89-0.89
			C474.22,116.21,474.62,116.6,474.62,117.09z"/>
		<path class="st3" d="M648.86,91.84c0,0.49-0.4,0.89-0.89,0.89c-0.49,0-0.89-0.4-0.89-0.89c0-0.49,0.4-0.89,0.89-0.89
			C648.46,90.95,648.86,91.35,648.86,91.84z"/>
		<path class="st3" d="M398.66,125.81c0,0.49-0.4,0.89-0.89,0.89c-0.49,0-0.89-0.4-0.89-0.89c0-0.49,0.4-0.89,0.89-0.89
			C398.26,124.92,398.66,125.32,398.66,125.81z"/>
		<path class="st3" d="M751.76,86.22c0,1.23-1,2.23-2.24,2.23s-2.24-1-2.24-2.23c0-1.23,1-2.23,2.24-2.23S751.76,84.99,751.76,86.22
			z"/>
		<path class="st3" d="M457.88,100.11c0,1.23-1,2.23-2.24,2.23c-1.24,0-2.24-1-2.24-2.23c0-1.23,1-2.23,2.24-2.23
			C456.88,97.88,457.88,98.88,457.88,100.11z"/>
		<path class="st3" d="M840.22,16.99c0,0.49-0.4,0.89-0.89,0.89c-0.49,0-0.89-0.4-0.89-0.89c0-0.49,0.4-0.89,0.89-0.89
			C839.82,16.1,840.22,16.5,840.22,16.99z"/>
		<path class="st3" d="M642.48,117.47c0,0.49-0.4,0.89-0.89,0.89c-0.49,0-0.89-0.4-0.89-0.89c0-0.49,0.4-0.89,0.89-0.89
			C642.08,116.58,642.48,116.98,642.48,117.47z"/>
		<path class="st3" d="M474.83,71.69c0,0.49-0.4,0.89-0.89,0.89c-0.49,0-0.89-0.4-0.89-0.89c0-0.49,0.4-0.89,0.89-0.89
			C474.43,70.8,474.83,71.2,474.83,71.69z"/>
		<path class="st3" d="M816.53,31.94c0,1.23-1,2.23-2.24,2.23c-1.24,0-2.24-1-2.24-2.23c0-1.23,1-2.23,2.24-2.23
			C815.53,29.72,816.53,30.71,816.53,31.94z"/>
		<path class="st3" d="M519.54,88.02c0,1.23-1,2.23-2.24,2.23c-1.24,0-2.24-1-2.24-2.23c0-1.23,1-2.23,2.24-2.23
			C518.54,85.79,519.54,86.79,519.54,88.02z"/>
		<path class="st3" d="M646.6,85.3c0,0.49-0.4,0.89-0.89,0.89c-0.49,0-0.89-0.4-0.89-0.89c0-0.49,0.4-0.89,0.89-0.89
			C646.2,84.41,646.6,84.8,646.6,85.3z"/>
		<path class="st3" d="M520.52,130.19c0,1.23-1,2.23-2.24,2.23s-2.24-1-2.24-2.23c0-1.23,1-2.23,2.24-2.23
			S520.52,128.96,520.52,130.19z"/>
		<path class="st3" d="M691.3,101.62c0,1.23-1,2.23-2.24,2.23c-1.24,0-2.24-1-2.24-2.23c0-1.23,1-2.23,2.24-2.23
			C690.3,99.4,691.3,100.39,691.3,101.62z"/>
		<path class="st3" d="M78.38,89.29c0,0.49-0.4,0.89-0.89,0.89c-0.49,0-0.89-0.4-0.89-0.89c0-0.49,0.4-0.89,0.89-0.89
			C77.98,88.4,78.38,88.8,78.38,89.29z"/>
		<path class="st3" d="M348.17,43.83c0,1.23-1,2.23-2.24,2.23c-1.24,0-2.24-1-2.24-2.23c0-1.23,1-2.23,2.24-2.23
			C347.17,41.6,348.17,42.6,348.17,43.83z"/>
		<path class="st3" d="M250.15,102.89c0,0.49-0.4,0.89-0.89,0.89c-0.49,0-0.89-0.4-0.89-0.89c0-0.49,0.4-0.89,0.89-0.89
			C249.75,102,250.15,102.4,250.15,102.89z"/>
		<path class="st3" d="M82.5,57.11c0,0.49-0.4,0.89-0.89,0.89c-0.49,0-0.89-0.4-0.89-0.89c0-0.49,0.4-0.89,0.89-0.89
			C82.1,56.22,82.5,56.62,82.5,57.11z"/>
		<ellipse class="st3" cx="123.13" cy="18.52" rx="2.24" ry="2.23"/>
		<path class="st3" d="M265.55,51.35c0,1.23-1,2.23-2.24,2.23c-1.24,0-2.24-1-2.24-2.23c0-1.23,1-2.23,2.24-2.23
			C264.55,49.12,265.55,50.12,265.55,51.35z"/>
		<path class="st3" d="M215.68,106c0,1.23-1,2.23-2.24,2.23c-1.24,0-2.24-1-2.24-2.23c0-1.23,1-2.23,2.24-2.23
			C214.68,103.77,215.68,104.77,215.68,106z"/>
		<path class="st3" d="M100.72,74.45c0,0.49-0.4,0.89-0.89,0.89c-0.49,0-0.89-0.4-0.89-0.89c0-0.49,0.4-0.89,0.89-0.89
			C100.32,73.56,100.72,73.96,100.72,74.45z"/>
		<path class="st3" d="M220.85,148.3c0,0.49-0.4,0.89-0.89,0.89c-0.49,0-0.89-0.4-0.89-0.89c0-0.49,0.4-0.89,0.89-0.89
			C220.45,147.41,220.85,147.81,220.85,148.3z"/>
		<path class="st3" d="M401.98,82.24c0,0.49-0.4,0.89-0.89,0.89c-0.49,0-0.89-0.4-0.89-0.89c0-0.49,0.4-0.89,0.89-0.89
			C401.58,81.35,401.98,81.74,401.98,82.24z"/>
		<path class="st3" d="M94.48,134.51c0,1.23-1,2.23-2.24,2.23c-1.24,0-2.24-1-2.24-2.23c0-1.23,1-2.23,2.24-2.23
			C93.47,132.28,94.48,133.28,94.48,134.51z"/>
		<path class="st3" d="M342.16,82.24c0,1.23-1,2.23-2.24,2.23c-1.24,0-2.24-1-2.24-2.23c0-1.23,1-2.23,2.24-2.23
			C341.16,80.01,342.16,81,342.16,82.24z"/>
		<ellipse class="st3" cx="385.2" cy="119.6" rx="2.24" ry="2.23"/>
		<path class="st3" d="M188.82,136.08c0,1.23-1,2.23-2.24,2.23c-1.24,0-2.24-1-2.24-2.23s1-2.23,2.24-2.23
			C187.82,133.86,188.82,134.85,188.82,136.08z"/>
		<path class="st3" d="M217.49,95.67c0,0.49-0.4,0.89-0.89,0.89c-0.49,0-0.89-0.4-0.89-0.89c0-0.49,0.4-0.89,0.89-0.89
			C217.09,94.79,217.49,95.18,217.49,95.67z"/>
		<path class="st3" d="M138.34,137.11c0,0.49-0.4,0.89-0.89,0.89c-0.49,0-0.89-0.4-0.89-0.89c0-0.49,0.4-0.89,0.89-0.89
			C137.94,136.22,138.34,136.62,138.34,137.11z"/>
		<path class="st3" d="M315.8,47.21c0,1.23-1,2.23-2.24,2.23c-1.24,0-2.24-1-2.24-2.23s1-2.23,2.24-2.23
			C314.8,44.98,315.8,45.98,315.8,47.21z"/>
		<path class="st3" d="M52.39,97.9c0,1.23-1,2.23-2.24,2.23s-2.24-1-2.24-2.23c0-1.23,1-2.23,2.24-2.23S52.39,96.67,52.39,97.9z"/>
		<path class="st3" d="M288.31,48.2c0,1.23-1,2.23-2.24,2.23s-2.24-1-2.24-2.23c0-1.23,1-2.23,2.24-2.23S288.31,46.97,288.31,48.2z"
			/>
		<path class="st3" d="M293.12,136.23c0,1.23-1,2.23-2.24,2.23c-1.24,0-2.24-1-2.24-2.23c0-1.23,1-2.23,2.24-2.23
			C292.12,134,293.12,135,293.12,136.23z"/>
		<path class="st3" d="M162.18,32.3c0,1.23-1,2.23-2.24,2.23c-1.24,0-2.24-1-2.24-2.23c0-1.23,1-2.23,2.24-2.23
			C161.18,30.07,162.18,31.07,162.18,32.3z"/>
		<path class="st3" d="M147.35,91.61c0,0.49-0.4,0.89-0.89,0.89c-0.49,0-0.89-0.4-0.89-0.89c0-0.49,0.4-0.89,0.89-0.89
			C146.95,90.72,147.35,91.12,147.35,91.61z"/>
		<path class="st3" d="M389.25,109.28c0,0.49-0.4,0.89-0.89,0.89c-0.49,0-0.89-0.4-0.89-0.89c0-0.49,0.4-0.89,0.89-0.89
			C388.85,108.39,389.25,108.79,389.25,109.28z"/>
		<path class="st3" d="M310.11,150.71c0,0.49-0.4,0.89-0.89,0.89c-0.49,0-0.89-0.4-0.89-0.89c0-0.49,0.4-0.89,0.89-0.89
			C309.71,149.82,310.11,150.22,310.11,150.71z"/>
		<path class="st3" d="M40.98,60.82c0,1.23-1,2.23-2.24,2.23c-1.24,0-2.24-1-2.24-2.23c0-1.23,1-2.23,2.24-2.23
			C39.98,58.59,40.98,59.59,40.98,60.82z"/>
		<path class="st3" d="M224.15,111.5c0,1.23-1,2.23-2.24,2.23c-1.24,0-2.24-1-2.24-2.23c0-1.23,1-2.23,2.24-2.23
			C223.15,109.28,224.15,110.27,224.15,111.5z"/>
		<path class="st3" d="M182.44,47.89c0,1.23-1,2.23-2.24,2.23c-1.24,0-2.24-1-2.24-2.23c0-1.23,1-2.23,2.24-2.23
			C181.44,45.66,182.44,46.66,182.44,47.89z"/>
	</g>
	<polygon class="st1" points="120.89,314.84 165.08,286.28 257.08,323.72 	"/>
	<path class="st4" d="M960,316.53V360H0v-45.51l88.24-44.81l93.86,45.6c21.9,2.72,169.77,0,169.77,0S390,317,388.82,304.36H415
		c0,0-4,12.13,33.73,12.13c37.05,0,233.48,0.01,322.79,0.01c27.04,0,44.26,0,44.26,0s6.44,0.29,14.55-0.84
		c12.98-1.81,30.25-7.27,32.32-23.42h58.78C921.43,292.24,919.71,315.8,960,316.53z"/>
</g>
<g id="Camada_3">
	<text transform="matrix(1 0 0 1 176.1188 182.1878)" class="st2 st5 st6">Carlos Costa | @cvmcosta </text>
	<text transform="matrix(1.085 0 0 1 269.934 214.043)" class="st2 st7 st8">EdTech Developer and Consultant</text>
</g>
</svg>
